<svg xmlns="http://www.w3.org/2000/svg" xmlns:xlink="http://www.w3.org/1999/xlink" width="138" height="142" viewBox="0 0 138 142">
    <defs>
        <path id="a" d="M44.931 6.038c-2.382 2.915-6.15 4.345-9.906 3.952a76.808 76.808 0 0 0-19.998.523C11.418 5.252 7.89 1.391 1.291 1.826.331 4.446-.608 12.885 7.098 18.69H7.1c-1.23 6.435-.75 12.865 1.439 19.296h36.96c2.19-6.43 2.669-12.86 1.439-19.296 8.715-1.583 7.994-15.806.218-18.134a9.862 9.862 0 0 1-2.225 5.482z"/>
        <path id="c" d="M44.931 5.942c-2.382 2.914-6.15 4.346-9.906 3.951a76.809 76.809 0 0 0-19.998.525C11.418 5.155 7.89 1.295 1.291 1.73.903 2.791.517 4.806.708 7.214c.103-1.26.341-2.286.583-2.945 5.85-.385 8.672 3.094 11.75 7.554a3.43 3.43 0 0 0 3.313 1.438c6.1-.879 12.7-1.453 18.671-.828 3.757.393 7.524-1.037 9.906-3.952a9.861 9.861 0 0 0 2.225-5.48c3.536 1.058 5.613 4.578 6.008 8.251.487-4.456-1.654-9.489-6.008-10.792a9.862 9.862 0 0 1-2.225 5.482z"/>
        <path id="e" d="M25.069 9.42c-3.878.857-7.176.632-10.577.405-2.151-.141-4.343-.284-6.747-.153-5.83.32-7.086 1.221-7.086 1.221l30.234 27.093s2.076-5.592 2.077-10.061c.002-4.469-.639-9.235-.639-9.235s6.34-.925 6.288-8.41C38.565 2.374 32.33.003 32.33.003S30.843 8.146 25.07 9.42"/>
        <path id="g" d="M25.069 9.42c-3.878.857-7.176.632-10.577.405-2.151-.141-4.343-.284-6.747-.153-5.83.32-7.086 1.221-7.086 1.221l30.234 27.093s2.076-5.592 2.077-10.061c.002-4.469-.639-9.235-.639-9.235s6.34-.925 6.288-8.41C38.565 2.374 32.33.003 32.33.003S30.843 8.146 25.07 9.42"/>
        <path id="i" d="M5.331 4.37C2.761 4.37.923 2.639.923.523l-.217 1.77c0 2.116 2.904 5.978 5.475 5.978 3.675 0 5.398-4.207 10.323-4.207 5.099 0 6.648 4.207 10.323 4.207 2.572 0 5.475-3.862 5.475-5.978l-.217-1.77c0 2.116-1.838 3.849-4.409 3.849-4.3 0-4.7-4.207-11.172-4.207S9.632 4.371 5.331 4.371z"/>
        <path id="k" d="M15.968.658c-2.31.313-3.542 2.102-2.935 3.097.205.4.876 1.57 1.04 1.716.59.53 1.448.755 2.262.741v2.346c-3.157.278-4.896 1.562-6.322 2.618-1.2.89-2.065 1.531-3.573 1.531-1.784 0-3.13-1.109-3.13-2.58 0-.7-.572-1.268-1.278-1.268-.707 0-1.279.568-1.279 1.269 0 2.87 2.499 5.118 5.687 5.118 2.356 0 3.753-1.034 5.102-2.034 1.508-1.117 2.93-2.171 6.071-2.171 3.141 0 4.564 1.054 6.072 2.17 1.35 1.001 2.745 2.035 5.1 2.035 3.19 0 5.688-2.248 5.688-5.118 0-.7-.573-1.269-1.279-1.269-.705 0-1.278.568-1.278 1.269 0 1.47-1.346 2.58-3.13 2.58-1.507 0-2.374-.643-3.573-1.532-1.426-1.056-3.164-2.34-6.322-2.618V6.212c.815.014 1.674-.211 2.263-.741.164-.147.834-1.316 1.04-1.716C22.8 2.76 21.568.97 19.258.658a12.28 12.28 0 0 0-3.29 0z"/>
        <path id="m" d="M2.881.296C1.31.57.32 1.85.221 2.921c.532-.553 1.367-1.017 2.437-1.162a12.296 12.296 0 0 1 3.291 0c1.072.145 1.907.61 2.438 1.162C8.289 1.851 7.299.569 5.727.296A8.248 8.248 0 0 0 4.304.174c-.475 0-.951.04-1.423.122z"/>
        <path id="o" d="M.05 10.484c0 5.726 3.777 10.369 8.436 10.369 4.658 0 8.435-4.643 8.435-10.37C16.92 4.758 13.144.116 8.486.116 3.826.115.05 4.757.05 10.484z"/>
        <path id="q" d="M.895 5.5C-.077 7.832.103 11.588 5.47 16.67c3.669 3.474 5.733 7.43 7.773 15.739 1.417 5.777 14.066 4.862 20.413 4.862 13.27 0 20.08-1.045 20.398-10.924 0 0 .608-17.763-6.176-17.011l-28.445 1.112s-2.316 3.724-4.398 1.657c-2.08-2.066-4.714-2.54-4.714-2.54s3.882-5.028-.277-8.02C9.198.934 8.337.685 7.5.685 4.23.686 1.312 4.496.895 5.5"/>
        <path id="s" d="M9.855 12.985c.227 3.817.843 10.856-1.343 13.637-1.846 2.353-5.2 2.822-7.567 2.31a3.887 3.887 0 0 0 2.971 1.415h.026c6.14-.037 7.26-2.608 7.566-4.542.003-.01.003-.016.003-.022.93-5.838.968-12.595.108-18.54a44.411 44.411 0 0 0-.955-4.837c-.131-.508-.27-.998-.417-1.474L8.27 1.16 6.52.865c.243 1.269 3.07 7.636 3.335 12.12z"/>
        <path id="u" d="M36.88.034c.63 0 1.145.569 1.145 1.27v3.73c0 .701-.516 1.27-1.146 1.27H1.243C.611 6.304.1 5.735.1 5.034v-3.73C.099.603.61.034 1.243.034H36.88z"/>
        <path id="w" d="M1.243.034H36.88c.63 0 1.146.569 1.146 1.27v3.73c0 .701-.516 1.27-1.146 1.27H1.243C.611 6.304.1 5.735.1 5.034v-3.73C.099.603.61.034 1.243.034z"/>
        <path id="y" d="M1.39.705c-.706 0-1.278.568-1.278 1.27v3.73c0 .701.572 1.27 1.279 1.27h39.792c.703 0 1.279-.569 1.279-1.27v-3.73c0-.702-.576-1.27-1.28-1.27H1.392z"/>
        <path id="A" d="M1.39.536c-.706 0-1.278.569-1.278 1.27v1.27c0-.701.572-1.27 1.279-1.27h39.792c.703 0 1.279.569 1.279 1.27v-1.27c0-.701-.576-1.27-1.28-1.27H1.392z"/>
        <path id="C" d="M.2 1.385c0 .701.572 1.27 1.278 1.27.707 0 1.28-.569 1.28-1.27 0-.702-.573-1.27-1.28-1.27C.772.115.2.683.2 1.385z"/>
        <path id="E" d="M.355 1.385c0 .701.572 1.27 1.279 1.27.705 0 1.277-.569 1.277-1.27 0-.702-.572-1.27-1.277-1.27-.707 0-1.28.568-1.28 1.27z"/>
        <path id="G" d="M.045 1.385c0 .701.573 1.27 1.278 1.27.707 0 1.279-.569 1.279-1.27 0-.702-.572-1.27-1.279-1.27C.618.115.045.683.045 1.385z"/>
        <path id="I" d="M.998 1.385c0 .701.572 1.27 1.279 1.27.706 0 1.279-.569 1.279-1.27 0-.702-.573-1.27-1.279-1.27C1.57.115.998.683.998 1.385z"/>
        <path id="K" d="M.844 1.385c0 .701.572 1.27 1.279 1.27.705 0 1.277-.569 1.277-1.27 0-.702-.572-1.27-1.277-1.27-.707 0-1.279.568-1.279 1.27z"/>
    </defs>
    <g fill="none" fill-rule="evenodd">
        <g transform="translate(1 2)">
            <circle cx="68.5" cy="71.5" r="68.5" fill="#F0E0C7"/>
            <circle cx="23" cy="22" r="22" fill="#81C06B" stroke="#FFF" stroke-width="4"/>
            <text fill="#FFF" font-family="Podkova-ExtraBold, Podkova" font-size="24" font-weight="600" letter-spacing=".8">
                <tspan x="16" y="32">1</tspan>
            </text>
        </g>
        <g transform="translate(44.545 40.81)">
            <mask id="b" fill="#fff">
                <use xlink:href="#a"/>
            </mask>
            <path fill="#CCAF96" d="M-4.889 43.493h63.666V-4.951H-4.889z" mask="url(#b)"/>
        </g>
        <g transform="translate(44.545 41.911)">
            <mask id="d" fill="#fff">
                <use xlink:href="#c"/>
            </mask>
            <path fill="#F6DFC3" d="M-4.888 18.804h63.665v-23.85H-4.888z" mask="url(#d)"/>
        </g>
        <g transform="translate(58.964 40.81)">
            <mask id="f" fill="#fff">
                <use xlink:href="#e"/>
            </mask>
            <path fill="#FFF" d="M32.55.556a9.854 9.854 0 0 1-2.225 5.482c-2.38 2.915-6.15 4.345-9.905 3.952a84.624 84.624 0 0 0-1.966-.178c-.98 2.313-1.578 4.424-1.578 5.887 0 5.512 4.499 9.98 10.049 9.98 1.56 0 3.73-.454 6.048-1.228a36.999 36.999 0 0 0-.641-5.76c8.716-1.584 7.994-15.807.218-18.135" mask="url(#f)"/>
        </g>
        <g transform="translate(58.964 40.81)">
            <mask id="h" fill="#fff">
                <use xlink:href="#g"/>
            </mask>
            <path fill="#F6DFC3" d="M32.937 26.067c-.043-1.976-.026-3.655-.401-5.619l-.205-1.758s-1.256.23-1.256.228c-.008-.04-.007-.08-.01-.12-.005-.044-.012-.088-.011-.132 0-.04.009-.078.014-.118.005-.043.006-.087.016-.129.007-.038.023-.074.035-.11.012-.042.023-.084.04-.123.016-.036.037-.066.056-.1.02-.038.038-.078.064-.114.02-.03.046-.056.07-.084.028-.035.054-.071.086-.103.027-.026.058-.046.087-.07.035-.028.067-.06.105-.084.033-.021.071-.037.106-.056.038-.02.075-.044.116-.06.039-.016.082-.024.124-.036.04-.013.078-.028.12-.037h.004c.003 0 1.67.817 1.67.817 4.547-.826 4.774-6.6 4.852-7.978.174-3.114-3.12-7.166-5.825-8.78a11.046 11.046 0 0 1-.54 1.647c1.229 3.279 4.487 8.551 1.063 11.731-1.195 1.112-3.67 1.474-3.555 2.818.153 1.788-.238 4.717-1.123 7.836.93-.137 1.97-.375 3.064-.692" mask="url(#h)"/>
        </g>
        <path stroke="#533425" stroke-linecap="round" stroke-linejoin="round" stroke-width="2.339" d="M89.857 78.795s2.075-5.592 2.077-10.06c.002-4.469-.639-9.235-.639-9.235s6.34-.925 6.288-8.41c-.055-7.907-6.288-10.277-6.288-10.277s-1.488 8.142-7.262 9.416c-6.33 1.398-11.12-.087-17.324.252-5.83.319-7.086 1.222-7.086 1.222"/>
        <g transform="translate(54.527 68.346)">
            <mask id="j" fill="#fff">
                <use xlink:href="#i"/>
            </mask>
            <path fill="#F6DFC3" d="M-4.839 13.777h42.687v-19.12H-4.84z" mask="url(#j)"/>
        </g>
        <g transform="translate(53.418 58.433)">
            <mask id="l" fill="#fff">
                <use xlink:href="#k"/>
            </mask>
            <path fill="#533425" d="M-4.792 20.754h44.81V-4.96h-44.81z" mask="url(#l)"/>
        </g>
        <g stroke="#533425" stroke-linecap="round" stroke-linejoin="round" stroke-width="2.806">
            <path d="M83.522 59.753v3.01M59.386 59.753v3.01"/>
        </g>
        <g transform="translate(66.727 57.331)">
            <mask id="n" fill="#fff">
                <use xlink:href="#m"/>
            </mask>
            <path fill="#F6DFC3" d="M-5.324 8.428h19.256V-5.333H-5.324z" mask="url(#n)"/>
        </g>
        <path fill="#A78B76" d="M87.984 91.816c-6.998 2.019-6.802 20.46 5.346 18.943 5.44-.68 6.652-6.208 5.242-10.653-2.198-6.928-4.652-10.003-10.588-8.29"/>
        <path stroke="#533425" stroke-linecap="round" stroke-linejoin="round" stroke-width="2.339" d="M87.984 91.816c-6.998 2.019-6.802 20.46 5.346 18.943 5.44-.68 6.652-6.208 5.242-10.653-2.198-6.928-4.652-10.003-10.588-8.29z"/>
        <path fill="#CFAB8E" d="M58.434 83.2s-2.317 3.724-4.399 1.657c-2.08-2.067-4.714-2.54-4.714-2.54s3.882-5.03-.277-8.021c-4.159-2.992-8.625 2.696-9.15 3.955-.97 2.333-.79 6.089 4.575 11.17 3.67 3.475 5.734 7.43 7.773 15.74 1.418 5.777 14.068 4.861 20.415 4.861 13.269 0 20.079-1.045 20.397-10.924 0 0 .608-17.763-6.177-17.01"/>
        <path stroke="#533425" stroke-linecap="round" stroke-linejoin="round" stroke-width="2.339" d="M58.434 83.2s-2.317 3.724-4.399 1.657c-2.08-2.067-4.714-2.54-4.714-2.54s3.882-5.03-.277-8.021c-4.159-2.992-8.625 2.696-9.15 3.955-.97 2.333-.79 6.089 4.575 11.17 3.67 3.475 5.734 7.43 7.773 15.74 1.418 5.777 14.068 4.861 20.415 4.861 13.269 0 20.079-1.045 20.397-10.924 0 0 .608-17.763-6.177-17.01"/>
        <g transform="translate(63.29 81.563)">
            <mask id="p" fill="#fff">
                <use xlink:href="#o"/>
            </mask>
            <path fill="#FFFFFE" d="M-5.495 26.36h27.961V-5.393H-5.495z" mask="url(#p)"/>
        </g>
        <path stroke="#533425" stroke-linecap="round" stroke-linejoin="round" stroke-width="2.339" d="M60.084 52.886s-1.5-5.326-7.594-8.826c-3.343-1.92-6.842-1.425-6.842-1.425s-1.297 4.935.537 10.19c1.834 5.257 5.271 6.675 5.271 6.675s-1.001 8.22-.328 11.857c.674 3.635 2.646 9.58 2.646 9.58"/>
        <g transform="translate(39 72.752)">
            <mask id="r" fill="#fff">
                <use xlink:href="#q"/>
            </mask>
            <path fill="#A78B76" d="M20.03 35.618c1.132.074 2.999.502 5.53.581 4.728.147 10.927-.087 13.04-.223.721-2.266 3.845-3.969 6.209-4.374.124-1.152.719-3.061.438-3.996-.202-.672-1.556-1.38-.88-1.579.354-.104-.83-.502-2.566 1.224-4.944 4.91-8.114 7.684-19.82 6.017-2.714-.386-1.95 2.35-1.95 2.35" mask="url(#r)"/>
        </g>
        <path stroke="#533425" stroke-linecap="round" stroke-linejoin="round" stroke-width="2.339" d="M58.434 83.2s-2.317 3.724-4.399 1.657c-2.08-2.067-4.714-2.54-4.714-2.54s3.882-5.03-.277-8.021c-4.159-2.992-8.625 2.696-9.15 3.955-.97 2.333-.79 6.089 4.575 11.17 3.67 3.475 5.734 7.43 7.773 15.74 1.418 5.777 14.068 4.861 20.415 4.861 13.269 0 20.079-1.045 20.397-10.924 0 0 .608-17.763-6.177-17.01"/>
        <path fill="#CFAB8E" d="M83.63 99.405c.903 2.01.052 5.588.052 5.588s-5.118-.826-5.118 4.898c0 5.724 8.348 6.122 11.094 3.85 2.746-2.271 3.104-5.85 3.3-13.494.195-7.645-1.536-16.469-1.536-16.469h-6.528"/>
        <g transform="translate(80.036 83.766)">
            <mask id="t" fill="#fff">
                <use xlink:href="#s"/>
            </mask>
            <path fill="#A8866E" d="M-4.6 35.854h22.383v-40.43H-4.6z" mask="url(#t)"/>
        </g>
        <path stroke="#533425" stroke-linecap="round" stroke-linejoin="round" stroke-width="2.339" d="M83.63 99.405c.903 2.01.052 5.588.052 5.588s-5.118-.826-5.118 4.898c0 5.724 8.348 6.122 11.094 3.85 2.746-2.271 3.104-5.85 3.3-13.494.195-7.645-1.536-16.469-1.536-16.469h-6.528"/>
        <path fill="#A8866E" d="M91.407 81.496H55.771c-.632 0-1.146.568-1.146 1.27v3.73c0 .701.514 1.27 1.146 1.27h35.636c.63 0 1.146-.569 1.146-1.27v-3.73c0-.702-.516-1.27-1.146-1.27"/>
        <g transform="translate(54.527 81.462)">
            <mask id="v" fill="#fff">
                <use xlink:href="#u"/>
            </mask>
            <path fill="#A8866E" d="M-130.803 429.667H461.18v-780.928h-591.983z" mask="url(#v)"/>
        </g>
        <g transform="translate(54.527 81.462)">
            <mask id="x" fill="#fff">
                <use xlink:href="#w"/>
            </mask>
            <path fill="#A8866E" d="M-4.868 11.811h47.86V-5.473h-47.86z" mask="url(#x)"/>
        </g>
        <g transform="translate(50.09 79.36)">
            <mask id="z" fill="#fff">
                <use xlink:href="#y"/>
            </mask>
            <path fill="#C81F2D" d="M-5.433 12.482h53.44V-4.802h-53.44z" mask="url(#z)"/>
        </g>
        <g transform="translate(50.09 78.259)">
            <mask id="B" fill="#fff">
                <use xlink:href="#A"/>
            </mask>
            <path fill="#FFFFFE" d="M-5.433 8.584h53.44V-4.971h-53.44z" mask="url(#B)"/>
        </g>
        <g transform="translate(61.182 81.563)">
            <mask id="D" fill="#fff">
                <use xlink:href="#C"/>
            </mask>
            <path fill="#FFFFFE" d="M-5.346 8.162H8.303V-5.393H-5.346z" mask="url(#D)"/>
        </g>
        <g transform="translate(52.31 81.563)">
            <mask id="F" fill="#fff">
                <use xlink:href="#E"/>
            </mask>
            <path fill="#FFFFFE" d="M-5.19 8.162H8.456V-5.393H-5.191z" mask="url(#F)"/>
        </g>
        <g transform="translate(70.055 81.563)">
            <mask id="H" fill="#fff">
                <use xlink:href="#G"/>
            </mask>
            <path fill="#FFFFFE" d="M-5.5 8.162H8.147V-5.393H-5.5z" mask="url(#H)"/>
        </g>
        <g transform="translate(77.818 81.563)">
            <mask id="J" fill="#fff">
                <use xlink:href="#I"/>
            </mask>
            <path fill="#FFFFFE" d="M-4.547 8.162H9.1V-5.393H-4.547z" mask="url(#J)"/>
        </g>
        <g transform="translate(86.69 81.563)">
            <mask id="L" fill="#fff">
                <use xlink:href="#K"/>
            </mask>
            <path fill="#FFFFFE" d="M-4.701 8.162H8.946V-5.393H-4.701z" mask="url(#L)"/>
        </g>
        <g>
            <path fill="#F6DFC3" d="M56.887 84.323L47.9 86.846a2.808 2.808 0 0 1-3.464-1.923l-4.895-17.19a2.784 2.784 0 0 1 1.936-3.44l8.986-2.525a2.81 2.81 0 0 1 3.464 1.923l4.895 17.192a2.784 2.784 0 0 1-1.936 3.44"/>
            <path stroke="#533425" stroke-linecap="round" stroke-linejoin="round" stroke-width="2.339" d="M56.887 84.323L47.9 86.846a2.808 2.808 0 0 1-3.464-1.923l-4.895-17.19a2.784 2.784 0 0 1 1.936-3.44l8.986-2.525a2.81 2.81 0 0 1 3.464 1.923l4.895 17.192a2.784 2.784 0 0 1-1.936 3.44z"/>
            <path fill="#EE1B24" d="M51.945 69.373c.602 2.116-.637 4.318-2.768 4.916-2.131.598-4.347-.632-4.95-2.748-.603-2.117.637-4.318 2.768-4.916 2.13-.599 4.347.633 4.95 2.748"/>
            <path fill="#CFAB8E" d="M56.67 88.152s-.554-1.228-2.635-3.295c-2.08-2.067-4.713-2.54-4.713-2.54s3.881-5.03-.278-8.021c-4.159-2.991-8.626 2.695-9.15 3.955-.97 2.333-.79 6.09 4.575 11.17 3.67 3.475 5.734 7.43 7.773 15.74"/>
            <path stroke="#533425" stroke-linecap="round" stroke-linejoin="round" stroke-width="2.339" d="M56.67 88.152s-.554-1.228-2.635-3.295c-2.08-2.067-4.713-2.54-4.713-2.54s3.881-5.03-.278-8.021c-4.159-2.991-8.626 2.695-9.15 3.955-.97 2.333-.79 6.09 4.575 11.17 3.67 3.475 5.734 7.43 7.773 15.74"/>
            <path fill="#F6DFC3" d="M51.113 90.732c-1.162.779-2.974 2.164-6.644-1.31-5.366-5.083-5.943-9.044-4.575-11.17 3.686-5.726 7.754-4.193 7.754-4.193s-4.682 1.483-4.293 6.133c.462 5.552 7.758 10.54 7.758 10.54"/>
            <path stroke="#533425" stroke-linecap="round" stroke-linejoin="round" stroke-width="2.339" d="M56.67 88.152s-.554-1.228-2.635-3.295c-2.08-2.067-4.713-2.54-4.713-2.54s3.881-5.03-.278-8.021c-4.159-2.991-8.626 2.695-9.15 3.955-.97 2.333-.79 6.09 4.575 11.17 3.67 3.475 5.734 7.43 7.773 15.74"/>
            <path fill="#CFAB8E" d="M55.899 91.816c6.998 2.019 6.802 20.46-5.346 18.943-5.44-.68-6.652-6.208-5.242-10.653 2.197-6.928 4.652-10.003 10.588-8.29"/>
            <path fill="#F6DFC3" d="M49.791 105.555c2.86 6.132 8.58 2.034 4.553 3.82-7.552 3.353-10.89-5.429-8.755-10.297 1.418-3.234 4.843-7.323 4.843-7.323s-3.573 7.514-.64 13.8"/>
            <path stroke="#533425" stroke-linecap="round" stroke-linejoin="round" stroke-width="2.339" d="M55.899 91.816c6.998 2.019 6.802 20.46-5.346 18.943-5.44-.68-6.652-6.208-5.242-10.653 2.197-6.928 4.652-10.003 10.588-8.29z"/>
        </g>
    </g>
</svg>
