<svg xmlns="http://www.w3.org/2000/svg" xmlns:xlink="http://www.w3.org/1999/xlink" width="139" height="142" viewBox="0 0 139 142">
    <defs>
        <path id="a" d="M2.376.325a46.565 46.565 0 0 0-.978 4.991c-.863 6.045-.83 12.95.11 18.924 0 .01 0 .024.004.032.683 4.344 4.377 5.593 8.74 5.623h.034c2.805-.02 5.07-2.307 5.07-5.126 0-.245-.016-.487-.05-.723 3.9.306 7.796.306 11.698 0-.035.236-.05.478-.05.723 0 2.819 2.265 5.106 5.068 5.126h.035c4.364-.025 8.057-1.28 8.74-5.623l.003-.018c.94-5.983.975-12.896.11-18.947a46.137 46.137 0 0 0-.974-4.982H2.376z"/>
        <path id="c" d="M2.4.85c.138.267.185.582.105.896A44.731 44.731 0 0 0 1.552 6.6c-.848 5.946-.81 12.708.107 18.546.007.023.01.045.01.066.226 1.394.88 3.106 3.497 3.966C1.86 22.134 3.644 4.787 5.353.183L2.399.85z"/>
        <path id="e" d="M.725 10.458c0 5.734 3.74 10.383 8.351 10.383 4.612 0 8.351-4.649 8.351-10.383 0-5.734-3.739-10.383-8.35-10.383C4.464.075.724 4.724.724 10.458z"/>
        <path id="g" d="M6.794 19.86l.205-.031c-.94-5.975-.974-12.88-.111-18.925L6.794.892c-6.126 3.605-10.525 16.846 0 18.969z"/>
        <path id="i" d="M.283.896c.864 6.05.83 12.964-.11 18.946l.132.019C10.83 17.738 6.432 4.497.305.892L.283.896z"/>
        <path id="k" d="M.716 11.535c.312 1.872 1.303 3.242 2.947 4.096-2.596-4.112-.447-9.322.654-12.494 0 0 .526-1.719.675-2.356C2.288 3.196.085 7.747.716 11.535z"/>
        <path id="m" d="M1.502 1.05c-.698 0-1.265.568-1.265 1.272 0 .702.567 1.271 1.265 1.271h.111c.7 0 1.266-.569 1.266-1.271 0-.704-.567-1.272-1.266-1.272h-.11z"/>
        <path id="o" d="M2.267 1.05c-.699 0-1.266.568-1.266 1.272 0 .702.567 1.271 1.266 1.271h.108c.7 0 1.266-.569 1.266-1.271 0-.704-.566-1.272-1.266-1.272h-.108z"/>
        <path id="q" d="M45.014.158c-.655.251-.98.985-.731 1.643.376.99.719 2.086 1.016 3.254.38 1.472.696 3.1.946 4.844.851 5.954.814 12.72-.108 18.566 0 .006 0 .013-.003.022-.303 1.937-1.41 4.51-7.489 4.548h-.027c-2.102-.014-3.811-1.745-3.811-3.854a3.859 3.859 0 0 1 3.839-3.858 1.251 1.251 0 0 0 .45-.088 2.27 2.27 0 0 0 .077-.032c.046-.022.09-.048.135-.074.02-.013.04-.023.059-.036.06-.043.118-.09.172-.142l.011-.015c.047-.048.091-.101.13-.158.015-.02.027-.042.04-.063a1.387 1.387 0 0 0 .107-.218c.008-.02.018-.038.024-.06.366-1.145.52-4.559.008-6.29a1.266 1.266 0 1 0-2.427.725c.278.937.265 2.848.142 4a6.425 6.425 0 0 0-5 4.382c-3.211.21-6.453.21-9.663 0a6.42 6.42 0 0 0-4.58-4.29l.002-.004c.335-2.375.597-6.592-.205-7.96a1.264 1.264 0 0 0-1.735-.446 1.276 1.276 0 0 0-.46 1.721c.419.986.073 6.27-.287 7.356 0 .003-.003.006-.003.01l-.029.088c0 .01-.003.02-.005.025-.004.012-.005.022-.007.032l-.003.018-.004.02a1.149 1.149 0 0 0-.015.35c.002.023.01.047.013.069.007.043.016.085.027.125.005.024.006.047.014.07.012.036.024.07.038.102.001.004.003.005.004.007.008.029.024.056.037.085.012.022.025.047.04.07l.035.054.005.007.021.034c.03.041.063.08.098.117.007.01.016.016.024.023l.025.025c.106.105.232.192.376.253l.025.01c.023.01.045.02.07.029a1.27 1.27 0 0 0 .165.043c.04.007.079.014.118.018.042.003.083.006.125.006 1.902 0 3.536 1.425 3.802 3.325.024.165.036.345.036.535 0 2.11-1.71 3.84-3.803 3.854h-.035c-6.039-.04-7.172-2.584-7.485-4.514a.242.242 0 0 0-.01-.066c-.916-5.838-.955-12.6-.107-18.546a44.73 44.73 0 0 1 .953-4.854 1.275 1.275 0 0 0-.908-1.549 1.268 1.268 0 0 0-1.544.913 47.05 47.05 0 0 0-.91 4.46v.002C2.576 11.676-.394 18.125.416 22.982c.579 3.479 2.924 5.875 6.623 6.808.999 3.808 4.286 5.753 9.795 5.789H16.883c3.274-.023 5.974-2.551 6.294-5.759a76.78 76.78 0 0 0 4.566.138c1.524 0 3.047-.048 4.566-.138.32 3.206 3.02 5.736 6.301 5.759H38.653c5.516-.032 8.808-1.983 9.795-5.804v-.001c3.657-.948 5.974-3.338 6.55-6.792.804-4.826-2.123-11.222-6.335-14.046a47.425 47.425 0 0 0-.911-4.513 33.315 33.315 0 0 0-1.105-3.53 1.267 1.267 0 0 0-1.184-.818h-.007c-.147 0-.296.026-.442.083zM2.912 22.564c-.567-3.4 1.152-7.416 3.465-9.95-.432 4.73-.36 9.762.212 14.376l.001.002c-2.087-.807-3.322-2.29-3.678-4.428zm46.203-9.861c2.273 2.539 3.947 6.5 3.387 9.861-.353 2.109-1.562 3.581-3.599 4.395.564-4.575.636-9.563.212-14.256z"/>
        <path id="s" d="M.806 4.37a3.834 3.834 0 0 0 .417 2.36C1.33 4.503 3.378 2.065 4.57 1.06a3.858 3.858 0 0 0-3.763 3.31z"/>
        <path id="u" d="M.175 7.491c.697.107 1.487.171 2.39.177H2.6c2.094-.015 3.804-1.745 3.804-3.855A3.869 3.869 0 0 0 3.899.198C5.173 2.976 3.495 6.86.175 7.49z"/>
        <path id="w" d="M44.415 6.046c-2.358 2.919-6.089 4.351-9.807 3.958a75.191 75.191 0 0 0-19.799.524c-3.573-5.27-7.066-9.135-13.6-8.7-.95 2.623-1.88 11.074 5.75 16.888h.003c-1.22 6.443-.744 12.882 1.424 19.321h36.59c2.17-6.439 2.644-12.878 1.425-19.321 8.63-1.586 7.915-15.829.216-18.159a9.927 9.927 0 0 1-2.202 5.49z"/>
        <path id="y" d="M44.415 5.95c-2.358 2.918-6.089 4.351-9.807 3.957a75.192 75.192 0 0 0-19.799.525c-3.573-5.27-7.066-9.135-13.6-8.7C.825 2.796.444 4.813.632 7.225c.101-1.261.338-2.29.577-2.949C7 3.889 9.795 7.373 12.843 11.839a3.378 3.378 0 0 0 3.28 1.44c6.039-.88 12.573-1.455 18.485-.829 3.718.394 7.45-1.039 9.807-3.957a9.927 9.927 0 0 0 2.202-5.489c3.502 1.06 5.559 4.585 5.948 8.264.483-4.463-1.637-9.502-5.948-10.807a9.927 9.927 0 0 1-2.202 5.49z"/>
        <path id="A" d="M24.75 9.432c-3.838.858-7.103.633-10.47.406-2.13-.14-4.3-.284-6.68-.153-5.773.32-7.016 1.223-7.016 1.223l29.933 27.13s2.054-5.6 2.056-10.075c.003-4.475-.632-9.247-.632-9.247s6.275-.927 6.225-8.422C38.112 2.377 31.94.004 31.94.004s-1.474 8.153-7.19 9.428"/>
        <path id="C" d="M24.75 9.432c-3.838.858-7.103.633-10.47.406-2.13-.14-4.3-.284-6.68-.153-5.773.32-7.016 1.223-7.016 1.223l29.933 27.13s2.054-5.6 2.056-10.075c.003-4.475-.632-9.247-.632-9.247s6.275-.927 6.225-8.422C38.112 2.377 31.94.004 31.94.004s-1.474 8.153-7.19 9.428"/>
        <path id="E" d="M36.444 1.036c.624 0 1.134.569 1.134 1.271v3.735c0 .702-.51 1.272-1.134 1.272H1.163c-.626 0-1.134-.57-1.134-1.272V2.307c0-.702.508-1.271 1.134-1.271h35.28z"/>
        <path id="G" d="M1.163 1.036h35.28c.625 0 1.134.569 1.134 1.271v3.735c0 .702-.51 1.272-1.133 1.272H1.163C.537 7.314.03 6.744.03 6.042V2.307c0-.702.507-1.271 1.133-1.271z"/>
        <path id="I" d="M1.704.706c-.686 0-1.24.569-1.24 1.272v3.734c0 .703.554 1.272 1.24 1.272H40.31c.68 0 1.24-.57 1.24-1.272V1.978c0-.703-.56-1.272-1.24-1.272H1.704z"/>
        <path id="K" d="M1.704.537c-.686 0-1.24.57-1.24 1.272V3.08c0-.703.554-1.272 1.24-1.272H40.31c.68 0 1.24.569 1.24 1.272V1.809c0-.703-.56-1.272-1.24-1.272H1.704z"/>
        <path id="M" d="M.128 1.386a1.27 1.27 0 0 0 1.268 1.272 1.27 1.27 0 0 0 1.266-1.272A1.27 1.27 0 0 0 1.396.115C.696.115.128.684.128 1.386z"/>
        <path id="O" d="M.282 1.386c0 .703.567 1.272 1.266 1.272.7 0 1.265-.569 1.265-1.272 0-.702-.565-1.271-1.265-1.271S.282.684.282 1.386z"/>
        <path id="Q" d="M1.075 1.386c0 .703.565 1.272 1.265 1.272s1.266-.569 1.266-1.272C3.606.684 3.039.115 2.34.115c-.7 0-1.265.569-1.265 1.271z"/>
        <path id="S" d="M.92 1.386c0 .703.566 1.272 1.265 1.272.7 0 1.266-.569 1.266-1.272 0-.702-.565-1.271-1.266-1.271C1.485.115.92.684.92 1.386z"/>
        <path id="U" d="M.768 1.386c0 .703.566 1.272 1.266 1.272.697 0 1.265-.569 1.265-1.272C3.299.684 2.73.115 2.034.115c-.7 0-1.266.569-1.266 1.271z"/>
        <path id="W" d="M5.665 4.376c-2.547 0-4.366-1.734-4.366-3.853l-.214 1.772c0 2.119 2.875 5.986 5.42 5.986 3.639 0 5.345-4.212 10.22-4.212 5.05 0 6.582 4.212 10.22 4.212 2.547 0 5.422-3.867 5.422-5.986L32.152.523c0 2.119-1.82 3.853-4.366 3.853-4.256 0-4.654-4.212-11.06-4.212-6.408 0-6.803 4.212-11.061 4.212z"/>
        <path id="Y" d="M3.24.297C1.681.57.702 1.853.604 2.925c.526-.554 1.353-1.018 2.412-1.164a12.05 12.05 0 0 1 3.26 0c1.059.146 1.887.61 2.412 1.164C8.592 1.853 7.612.57 6.057.297a8.088 8.088 0 0 0-2.818 0z"/>
        <path id="aa" d="M1.076 1.478a1.275 1.275 0 0 0 0 1.798 1.262 1.262 0 0 0 1.79 0c.8-.803 2.1-.803 2.899 0a1.259 1.259 0 0 0 1.788 0 1.273 1.273 0 0 0 0-1.798A4.538 4.538 0 0 0 4.315.129c-1.223 0-2.374.48-3.239 1.349z"/>
        <path id="ac" d="M.968 1.478a1.275 1.275 0 0 0 0 1.798 1.262 1.262 0 0 0 1.79 0 2.044 2.044 0 0 1 2.898 0 1.26 1.26 0 0 0 1.79 0 1.275 1.275 0 0 0 0-1.798A4.538 4.538 0 0 0 4.208.129c-1.225 0-2.375.48-3.24 1.349z"/>
        <path id="ae" d="M15.808.658c-2.287.315-3.506 2.106-2.905 3.102.203.4.868 1.572 1.029 1.718.584.53 1.434.757 2.24.743V8.57c-3.125.278-4.847 1.564-6.259 2.622-1.187.89-2.044 1.533-3.537 1.533-1.766 0-3.098-1.111-3.098-2.583 0-.702-.567-1.271-1.266-1.271-.7 0-1.266.57-1.266 1.27 0 2.875 2.473 5.126 5.63 5.126 2.333 0 3.715-1.036 5.051-2.037 1.493-1.119 2.9-2.174 6.011-2.174 3.11 0 4.518 1.055 6.01 2.174 1.337 1.001 2.718 2.037 5.05 2.037 3.158 0 5.631-2.251 5.631-5.125 0-.702-.566-1.271-1.266-1.271-.698 0-1.265.57-1.265 1.27 0 1.473-1.333 2.584-3.1 2.584-1.49 0-2.35-.643-3.536-1.533-1.412-1.058-3.133-2.344-6.26-2.622V6.22c.808.015 1.658-.211 2.24-.742.163-.146.827-1.318 1.03-1.718.6-.996-.618-2.787-2.906-3.102a12.022 12.022 0 0 0-3.258 0z"/>
    </defs>
    <g fill="none" fill-rule="evenodd">
        <g transform="translate(2 2)">
            <circle cx="68.5" cy="71.5" r="68.5" fill="#F0E0C7"/>
            <circle cx="22" cy="22" r="22" fill="#81C06B" stroke="#FFF" stroke-width="4"/>
            <text fill="#FFF" font-family="Podkova-ExtraBold, Podkova" font-size="24" font-weight="600" letter-spacing=".8">
                <tspan x="16" y="32">2</tspan>
            </text>
        </g>
        <g transform="translate(49.588 82.281)">
            <mask id="b" fill="#fff">
                <use xlink:href="#a"/>
            </mask>
            <path fill="#CCAF96" d="M-4.714 35.41h51.738V-5.188H-4.714z" mask="url(#b)"/>
        </g>
        <g transform="translate(50.686 81.178)">
            <mask id="d" fill="#fff">
                <use xlink:href="#c"/>
            </mask>
            <path fill="#F6DFC3" d="M-4.548 34.693h15.391V-5.332H-4.548z" mask="url(#d)"/>
        </g>
        <g transform="translate(61.667 77.87)">
            <mask id="f" fill="#fff">
                <use xlink:href="#e"/>
            </mask>
            <path fill="#FFFFFE" d="M-4.765 26.356h27.682V-5.44H-4.765z" mask="url(#f)"/>
        </g>
        <g transform="translate(44.098 86.693)">
            <mask id="h" fill="#fff">
                <use xlink:href="#g"/>
            </mask>
            <path fill="#CFAB8E" d="M-5.045 25.375H12.49V-4.622H-5.045z" mask="url(#h)"/>
        </g>
        <g transform="translate(90.216 86.693)">
            <mask id="j" fill="#fff">
                <use xlink:href="#i"/>
            </mask>
            <path fill="#A78B76" d="M-5.318 25.375h17.463V-4.622H-5.318z" mask="url(#j)"/>
        </g>
        <g transform="translate(45.196 88.899)">
            <mask id="l" fill="#fff">
                <use xlink:href="#k"/>
            </mask>
            <path fill="#F6DFC3" d="M-4.883 21.146h15.365v-25.88H-4.883z" mask="url(#l)"/>
        </g>
        <g transform="translate(58.373 109.855)">
            <mask id="n" fill="#fff">
                <use xlink:href="#m"/>
            </mask>
            <path fill="#533425" d="M-5.253 9.108H8.369V-4.465H-5.253z" mask="url(#n)"/>
        </g>
        <g transform="translate(79.235 109.855)">
            <mask id="p" fill="#fff">
                <use xlink:href="#o"/>
            </mask>
            <path fill="#533425" d="M-4.489 9.108h13.62V-4.465h-13.62z" mask="url(#p)"/>
        </g>
        <g transform="translate(43 77.87)">
            <mask id="r" fill="#fff">
                <use xlink:href="#q"/>
            </mask>
            <path fill="#533425" d="M-5.21 41.093h65.83V-5.44H-5.21z" mask="url(#r)"/>
        </g>
        <g transform="translate(77.04 102.134)">
            <mask id="t" fill="#fff">
                <use xlink:href="#s"/>
            </mask>
            <path fill="#F6DFC3" d="M-4.723 12.245H10.06v-16.7H-4.723z" mask="url(#t)"/>
        </g>
        <g transform="translate(57.275 103.237)">
            <mask id="v" fill="#fff">
                <use xlink:href="#u"/>
            </mask>
            <path fill="#A8866E" d="M-5.316 13.182h17.21v-18.5h-17.21z" mask="url(#v)"/>
        </g>
        <g transform="translate(44.098 40.37)">
            <mask id="x" fill="#fff">
                <use xlink:href="#w"/>
            </mask>
            <path fill="#CCAF96" d="M-4.908 43.552h63.032v-48.51H-4.908z" mask="url(#x)"/>
        </g>
        <g transform="translate(44.098 41.472)">
            <mask id="z" fill="#fff">
                <use xlink:href="#y"/>
            </mask>
            <path fill="#F6DFC3" d="M-4.907 18.83h63.03V-5.055h-63.03z" mask="url(#z)"/>
        </g>
        <g transform="translate(58.373 40.37)">
            <mask id="B" fill="#fff">
                <use xlink:href="#A"/>
            </mask>
            <path fill="#FFF" d="M32.157.557a9.927 9.927 0 0 1-2.202 5.49c-2.358 2.918-6.089 4.35-9.807 3.957a82.857 82.857 0 0 0-1.947-.179c-.97 2.316-1.561 4.43-1.561 5.895 0 5.52 4.453 9.994 9.948 9.994 1.544 0 3.694-.454 5.988-1.23a37.456 37.456 0 0 0-.635-5.768c8.63-1.586 7.915-15.829.216-18.159" mask="url(#B)"/>
        </g>
        <g transform="translate(58.373 40.37)">
            <mask id="D" fill="#fff">
                <use xlink:href="#C"/>
            </mask>
            <path fill="#F6DFC3" d="M32.54 26.102c-.043-1.979-.025-3.66-.397-5.626l-.202-1.76c0-.002-1.244.23-1.244.228-.008-.04-.007-.08-.01-.12-.005-.045-.012-.089-.011-.133 0-.04.009-.078.014-.118.004-.043.006-.087.015-.129.008-.038.024-.074.036-.11.012-.042.023-.084.04-.124.014-.035.035-.066.054-.099.02-.039.038-.078.064-.115.02-.03.046-.056.069-.083.027-.036.054-.072.086-.104.026-.026.057-.046.085-.07.035-.028.067-.06.104-.085.033-.02.07-.036.105-.055.038-.02.074-.044.115-.06.039-.016.081-.025.123-.037.04-.012.077-.027.119-.036h.004l1.654.818c4.5-.827 4.726-6.609 4.803-7.99.172-3.117-3.09-7.175-5.767-8.791a11.15 11.15 0 0 1-.534 1.649c1.216 3.283 4.442 8.563 1.052 11.747-1.184 1.113-3.634 1.476-3.52 2.822.151 1.79-.235 4.724-1.112 7.847.92-.138 1.95-.376 3.033-.694" mask="url(#D)"/>
        </g>
        <path stroke="#533425" stroke-linecap="round" stroke-linejoin="round" stroke-width="2.339" d="M88.89 78.407s2.054-5.6 2.056-10.075c.002-4.474-.632-9.247-.632-9.247s6.276-.926 6.224-8.42c-.053-7.919-6.224-10.292-6.224-10.292s-1.474 8.153-7.19 9.429c-6.268 1.4-11.01-.087-17.152.252-5.772.32-7.015 1.224-7.015 1.224"/>
        <path stroke="#533425" stroke-linecap="round" stroke-linejoin="round" stroke-width="2.339" d="M59.413 52.463s-1.484-5.334-7.518-8.838c-3.31-1.923-6.773-1.427-6.773-1.427s-1.285 4.94.53 10.204c1.817 5.263 5.22 6.683 5.22 6.683s-.992 8.231-.326 11.873c.668 3.64 2.621 9.593 2.621 9.593"/>
        <path fill="#A8866E" d="M90.424 81.111h-35.28c-.627 0-1.135.57-1.135 1.272v3.734c0 .703.508 1.272 1.134 1.272h35.281c.624 0 1.135-.57 1.135-1.272v-3.734c0-.703-.511-1.272-1.135-1.272"/>
        <g transform="translate(53.98 80.075)">
            <mask id="F" fill="#fff">
                <use xlink:href="#E"/>
            </mask>
            <path fill="#A8866E" d="M-129.569 431.25h586.084v-781.985h-586.084z" mask="url(#F)"/>
        </g>
        <g transform="translate(53.98 80.075)">
            <mask id="H" fill="#fff">
                <use xlink:href="#G"/>
            </mask>
            <path fill="#A8866E" d="M-4.887 12.828h47.382V-4.479H-4.887z" mask="url(#H)"/>
        </g>
        <g transform="translate(49.588 78.972)">
            <mask id="J" fill="#fff">
                <use xlink:href="#I"/>
            </mask>
            <path fill="#C81F2D" d="M-4.917 12.499h51.846V-4.81H-4.917z" mask="url(#J)"/>
        </g>
        <g transform="translate(49.588 77.87)">
            <mask id="L" fill="#fff">
                <use xlink:href="#K"/>
            </mask>
            <path fill="#FFFFFE" d="M-4.917 8.595h51.846V-4.978H-4.917z" mask="url(#L)"/>
        </g>
        <g transform="translate(60.569 81.178)">
            <mask id="N" fill="#fff">
                <use xlink:href="#M"/>
            </mask>
            <path fill="#FFFFFE" d="M-5.36 8.173H8.151V-5.4H-5.361z" mask="url(#N)"/>
        </g>
        <g transform="translate(51.784 81.178)">
            <mask id="P" fill="#fff">
                <use xlink:href="#O"/>
            </mask>
            <path fill="#FFFFFE" d="M-5.207 8.173H8.304V-5.4h-13.51z" mask="url(#P)"/>
        </g>
        <g transform="translate(68.255 81.178)">
            <mask id="R" fill="#fff">
                <use xlink:href="#Q"/>
            </mask>
            <path fill="#FFFFFE" d="M-4.415 8.173H9.096V-5.4H-4.415z" mask="url(#R)"/>
        </g>
        <g transform="translate(77.04 81.178)">
            <mask id="T" fill="#fff">
                <use xlink:href="#S"/>
            </mask>
            <path fill="#FFFFFE" d="M-4.57 8.173H8.942V-5.4H-4.57z" mask="url(#T)"/>
        </g>
        <g transform="translate(85.824 81.178)">
            <mask id="V" fill="#fff">
                <use xlink:href="#U"/>
            </mask>
            <path fill="#FFFFFE" d="M-4.723 8.173H8.79V-5.4H-4.723z" mask="url(#V)"/>
        </g>
        <path fill="#EE1B24" d="M72.738 101.174c1.845 4.29-.12 9.269-4.391 11.123-4.272 1.853-9.23-.123-11.074-4.412-1.845-4.29.12-9.269 4.391-11.122 4.272-1.854 9.23.121 11.074 4.41"/>
        <path stroke="#533425" stroke-linecap="round" stroke-linejoin="round" stroke-width="2.339" d="M72.738 101.174c1.845 4.29-.12 9.269-4.391 11.123-4.272 1.853-9.23-.123-11.074-4.412-1.845-4.29.12-9.269 4.391-11.122 4.272-1.854 9.23.121 11.074 4.41z"/>
        <path stroke="#533425" stroke-linecap="round" stroke-linejoin="round" stroke-width="2.339" d="M73.409 105.173s-1.965-.114-3.438.526l-4.42 1.918a3.044 3.044 0 0 1-4.01-1.597 3.069 3.069 0 0 1 1.59-4.027s3.243-1.406 4.42-1.918c1.99-.864 2.748-2.132 2.748-2.132"/>
        <g transform="translate(53.98 67.943)">
            <mask id="X" fill="#fff">
                <use xlink:href="#W"/>
            </mask>
            <path fill="#F6DFC3" d="M-4.404 13.796h42.261V-5.35H-4.404z" mask="url(#X)"/>
        </g>
        <g transform="translate(66.059 56.914)">
            <mask id="Z" fill="#fff">
                <use xlink:href="#Y"/>
            </mask>
            <path fill="#F6DFC3" d="M-4.884 8.44H14.18V-5.34H-4.884z" mask="url(#Z)"/>
        </g>
        <g>
            <path fill="#EE1B24" d="M73.43 68.744v2.666a1.868 1.868 0 0 1-1.864 1.873h-2.493a1.869 1.869 0 0 1-1.865-1.873v-2.666"/>
            <path stroke="#533425" stroke-linecap="round" stroke-linejoin="round" stroke-width="2.339" d="M73.43 68.744v2.666a1.868 1.868 0 0 1-1.864 1.873h-2.493a1.869 1.869 0 0 1-1.865-1.873v-2.666"/>
        </g>
        <g transform="translate(53.98 59.12)">
            <mask id="ab" fill="#fff">
                <use xlink:href="#aa"/>
            </mask>
            <path fill="#533425" d="M-4.784 9.163h18.2V-5.385h-18.2z" mask="url(#ab)"/>
        </g>
        <g transform="translate(78.137 59.12)">
            <mask id="ad" fill="#fff">
                <use xlink:href="#ac"/>
            </mask>
            <path fill="#533425" d="M-4.893 9.163h18.199V-5.385H-4.893z" mask="url(#ad)"/>
        </g>
        <g transform="translate(52.882 58.017)">
            <mask id="af" fill="#fff">
                <use xlink:href="#ae"/>
            </mask>
            <path fill="#533425" d="M-4.745 20.782H39.62V-4.967H-4.745z" mask="url(#af)"/>
        </g>
    </g>
</svg>
