<svg xmlns="http://www.w3.org/2000/svg" xmlns:xlink="http://www.w3.org/1999/xlink" width="139" height="142" viewBox="0 0 139 142">
    <defs>
        <path id="a" d="M2.419.325a45.842 45.842 0 0 0-.996 4.991c-.879 6.045-.844 12.95.113 18.924a.1.1 0 0 0 .003.032c.695 4.344 4.455 5.593 8.896 5.623h.035c2.855-.02 5.16-2.307 5.16-5.126 0-.245-.016-.487-.051-.723 3.97.306 7.935.306 11.907 0a4.823 4.823 0 0 0-.051.723c0 2.819 2.306 5.106 5.159 5.126h.036c4.441-.025 8.2-1.28 8.896-5.623l.002-.018c.957-5.983.993-12.896.113-18.947A45.419 45.419 0 0 0 40.65.325H2.419z"/>
        <path id="c" d="M2.442.85c.14.267.189.582.107.896A44.036 44.036 0 0 0 1.58 6.6c-.863 5.946-.823 12.708.11 18.546.006.023.01.045.01.066.23 1.394.896 3.106 3.56 3.966-3.366-7.044-1.55-24.391.19-28.995L2.442.85z"/>
        <path id="e" d="M.738 10.458c0 5.734 3.806 10.383 8.5 10.383 4.695 0 8.5-4.649 8.5-10.383 0-5.734-3.805-10.383-8.5-10.383-4.694 0-8.5 4.649-8.5 10.383z"/>
        <path id="g" d="M6.915 19.86l.209-.031C6.167 13.854 6.133 6.949 7.01.904L6.915.892c-6.235 3.605-10.713 16.846 0 18.969z"/>
        <path id="i" d="M.288.896c.88 6.05.844 12.964-.113 18.946l.136.019C11.023 17.738 6.547 4.497.31.892L.288.896z"/>
        <path id="k" d="M.729 11.535c.317 1.872 1.326 3.242 3 4.096-2.643-4.112-.455-9.322.666-12.494 0 0 .535-1.719.686-2.356C2.329 3.196.086 7.747.729 11.535z"/>
        <path id="m" d="M1.529 1.05C.819 1.05.24 1.618.24 2.322A1.28 1.28 0 0 0 1.53 3.593h.113A1.28 1.28 0 0 0 2.93 2.322 1.28 1.28 0 0 0 1.642 1.05h-.113z"/>
        <path id="o" d="M2.308 1.05a1.28 1.28 0 0 0-1.289 1.272 1.28 1.28 0 0 0 1.289 1.271h.11a1.28 1.28 0 0 0 1.288-1.271A1.28 1.28 0 0 0 2.417 1.05h-.11z"/>
        <path id="q" d="M45.818.158a1.266 1.266 0 0 0-.744 1.643c.383.99.732 2.086 1.033 3.254.387 1.472.709 3.1.964 4.844.866 5.954.828 12.72-.11 18.566 0 .006 0 .013-.003.022-.309 1.937-1.436 4.51-7.622 4.548h-.028c-2.14-.014-3.88-1.745-3.88-3.854 0-.19.015-.372.04-.546.268-1.888 1.93-3.311 3.865-3.314l.003.001a1.295 1.295 0 0 0 .458-.087c.026-.01.052-.02.078-.032.047-.022.093-.048.138-.074l.06-.036c.061-.043.12-.09.175-.142l.012-.015c.048-.048.092-.101.133-.158.014-.02.026-.042.04-.063a1.38 1.38 0 0 0 .108-.218c.008-.02.018-.038.025-.06.372-1.145.528-4.559.008-6.29a1.292 1.292 0 0 0-1.603-.855c-.682.2-1.07.908-.867 1.58.282.937.269 2.848.144 4-2.382.408-4.362 2.113-5.09 4.382a76.61 76.61 0 0 1-9.835 0c-.684-2.135-2.473-3.764-4.66-4.29v-.004c.341-2.375.608-6.592-.209-7.96a1.3 1.3 0 0 0-1.766-.446 1.264 1.264 0 0 0-.467 1.721c.426.986.074 6.27-.293 7.356 0 .003-.003.006-.003.01a2.71 2.71 0 0 1-.03.088c0 .01-.002.02-.005.025l-.006.032a.521.521 0 0 1-.004.018l-.003.02a1.13 1.13 0 0 0-.016.35c.003.023.01.047.014.069.006.043.015.085.027.125.005.024.006.047.014.07.012.036.025.07.04.102 0 .004.001.005.003.007.008.029.024.056.038.085.012.022.025.047.04.07l.036.054.005.007.021.034c.032.041.064.08.1.117.008.01.017.016.024.023a1.231 1.231 0 0 0 .408.278l.026.01.07.029c.052.018.102.03.154.04.004 0 .01 0 .015.003.04.007.08.014.12.018.043.003.085.006.127.006h.001c1.936 0 3.6 1.425 3.87 3.325.024.165.037.345.037.535 0 2.11-1.74 3.84-3.872 3.854h-.036c-6.146-.04-7.3-2.584-7.618-4.514a.238.238 0 0 0-.01-.066c-.933-5.838-.972-12.6-.11-18.546.252-1.728.577-3.362.97-4.854a1.273 1.273 0 0 0-.923-1.549 1.292 1.292 0 0 0-1.572.913 46.326 46.326 0 0 0-.925 4.46v.002C2.62 11.676-.402 18.125.422 22.982c.59 3.479 2.977 5.875 6.742 6.808 1.016 3.808 4.362 5.753 9.97 5.789h.051c3.332-.023 6.08-2.551 6.406-5.759 1.545.09 3.096.138 4.647.138 1.552 0 3.102-.048 4.648-.138.325 3.206 3.074 5.736 6.414 5.759h.043c5.614-.032 8.965-1.983 9.97-5.804v-.001c3.723-.948 6.08-3.338 6.667-6.792.819-4.826-2.16-11.222-6.448-14.046a46.693 46.693 0 0 0-.928-4.513A32.89 32.89 0 0 0 47.48.893a1.29 1.29 0 0 0-1.205-.818h-.008c-.148 0-.3.026-.45.083zM2.964 22.564c-.577-3.4 1.172-7.416 3.527-9.95-.44 4.73-.366 9.762.216 14.376l.001.002c-2.125-.807-3.382-2.29-3.744-4.428zm47.028-9.861c2.314 2.539 4.017 6.5 3.447 9.861-.359 2.109-1.59 3.581-3.662 4.395.573-4.575.647-9.563.215-14.256z"/>
        <path id="s" d="M.82 4.37a3.78 3.78 0 0 0 .425 2.36c.108-2.227 2.193-4.665 3.406-5.671-1.92.019-3.564 1.435-3.83 3.31z"/>
        <path id="u" d="M.178 7.491c.71.107 1.514.171 2.433.177H2.647c2.13-.015 3.871-1.745 3.871-3.855 0-.19-.012-.37-.037-.535C6.278 1.843 5.28.68 3.97.198 5.265 2.976 3.557 6.86.178 7.49z"/>
        <path id="w" d="M45.208 6.046c-2.4 2.919-6.198 4.351-9.982 3.958a77.886 77.886 0 0 0-20.152.524c-3.637-5.27-7.192-9.135-13.843-8.7C.264 4.452-.683 12.903 7.083 18.717h.003c-1.24 6.443-.757 12.882 1.45 19.321H45.78c2.207-6.439 2.69-12.878 1.45-19.321 8.783-1.586 8.056-15.829.22-18.159a9.834 9.834 0 0 1-2.242 5.49z"/>
        <path id="y" d="M45.208 5.95c-2.4 2.918-6.198 4.351-9.982 3.957a77.886 77.886 0 0 0-20.152.525c-3.637-5.27-7.192-9.135-13.843-8.7C.839 2.796.45 4.813.644 7.225c.103-1.261.343-2.29.587-2.949 5.895-.386 8.738 3.098 11.841 7.564a3.464 3.464 0 0 0 3.338 1.44c6.147-.88 12.799-1.455 18.816-.829 3.784.394 7.582-1.039 9.982-3.957a9.834 9.834 0 0 0 2.242-5.489c3.564 1.06 5.657 4.585 6.054 8.264.492-4.463-1.666-9.502-6.054-10.807a9.834 9.834 0 0 1-2.242 5.49z"/>
        <path id="A" d="M25.193 9.432c-3.907.858-7.231.633-10.658.406-2.168-.14-4.377-.284-6.8-.153-5.875.32-7.14 1.223-7.14 1.223l30.467 27.13s2.09-5.6 2.093-10.075c.002-4.475-.644-9.247-.644-9.247s6.388-.927 6.336-8.422C38.792 2.377 32.511.004 32.511.004s-1.5 8.153-7.318 9.428"/>
        <path id="C" d="M25.193 9.432c-3.907.858-7.231.633-10.658.406-2.168-.14-4.377-.284-6.8-.153-5.875.32-7.14 1.223-7.14 1.223l30.467 27.13s2.09-5.6 2.093-10.075c.002-4.475-.644-9.247-.644-9.247s6.388-.927 6.336-8.422C38.792 2.377 32.511.004 32.511.004s-1.5 8.153-7.318 9.428"/>
        <path id="E" d="M37.095 1.036c.635 0 1.154.569 1.154 1.271v3.735c0 .702-.52 1.272-1.154 1.272H1.184c-.637 0-1.155-.57-1.155-1.272V2.307c0-.702.518-1.271 1.155-1.271h35.91z"/>
        <path id="G" d="M1.184 1.036h35.91c.636 0 1.154.569 1.154 1.271v3.735c0 .702-.518 1.272-1.153 1.272H1.184C.547 7.314.03 6.744.03 6.042V2.307c0-.702.517-1.271 1.154-1.271z"/>
        <path id="I" d="M1.735.706c-.699 0-1.263.569-1.263 1.272v3.734c0 .703.564 1.272 1.263 1.272h39.294a1.27 1.27 0 0 0 1.262-1.272V1.978A1.27 1.27 0 0 0 41.029.706H1.735z"/>
        <path id="K" d="M1.735.537c-.699 0-1.263.57-1.263 1.272V3.08c0-.703.564-1.272 1.263-1.272h39.294c.693 0 1.262.569 1.262 1.272V1.809A1.27 1.27 0 0 0 41.029.537H1.735z"/>
        <path id="M" d="M.13 1.386a1.28 1.28 0 0 0 1.29 1.272c.711 0 1.29-.569 1.29-1.272A1.28 1.28 0 0 0 1.42.115C.71.115.13.684.13 1.386z"/>
        <path id="O" d="M.287 1.386a1.28 1.28 0 0 0 1.289 1.272c.712 0 1.287-.569 1.287-1.272 0-.702-.575-1.271-1.287-1.271A1.28 1.28 0 0 0 .287 1.386z"/>
        <path id="Q" d="M1.094 1.386c0 .703.576 1.272 1.288 1.272A1.28 1.28 0 0 0 3.67 1.386 1.28 1.28 0 0 0 2.382.115c-.712 0-1.288.569-1.288 1.271z"/>
        <path id="S" d="M.935 1.386a1.28 1.28 0 0 0 1.29 1.272 1.28 1.28 0 0 0 1.288-1.272A1.28 1.28 0 0 0 2.224.115 1.28 1.28 0 0 0 .935 1.386z"/>
        <path id="U" d="M.781 1.386A1.28 1.28 0 0 0 2.07 2.658c.71 0 1.287-.569 1.287-1.272A1.28 1.28 0 0 0 2.07.115 1.28 1.28 0 0 0 .78 1.386z"/>
        <path id="W" d="M5.766 4.376c-2.592 0-4.444-1.734-4.444-3.853l-.218 1.772c0 2.119 2.926 5.986 5.518 5.986 3.703 0 5.44-4.212 10.402-4.212 5.139 0 6.7 4.212 10.402 4.212 2.593 0 5.519-3.867 5.519-5.986l-.22-1.772c0 2.119-1.851 3.853-4.443 3.853-4.332 0-4.737-4.212-11.258-4.212-6.521 0-6.924 4.212-11.258 4.212z"/>
        <path id="Y" d="M3.297.297C1.712.57.715 1.853.616 2.925c.535-.554 1.377-1.018 2.455-1.164a12.481 12.481 0 0 1 3.317 0c1.079.146 1.922.61 2.456 1.164C8.746 1.853 7.748.57 6.164.297a8.376 8.376 0 0 0-2.867 0z"/>
        <path id="aa" d="M1.095 1.478a1.26 1.26 0 0 0 0 1.798 1.3 1.3 0 0 0 1.822 0 2.108 2.108 0 0 1 2.95 0c.252.248.582.373.91.373.33 0 .66-.125.911-.373a1.258 1.258 0 0 0 0-1.798A4.66 4.66 0 0 0 4.392.129c-1.245 0-2.416.48-3.297 1.349z"/>
        <path id="ac" d="M.986 1.478a1.26 1.26 0 0 0 0 1.798 1.3 1.3 0 0 0 1.822 0 2.107 2.107 0 0 1 2.949 0c.251.248.581.373.91.373.33 0 .66-.125.912-.373a1.26 1.26 0 0 0 0-1.798A4.66 4.66 0 0 0 4.283.129c-1.246 0-2.418.48-3.297 1.349z"/>
        <path id="ae" d="M16.09.658c-2.327.315-3.568 2.106-2.957 3.102.207.4.883 1.572 1.048 1.718.594.53 1.46.757 2.28.743V8.57c-3.181.278-4.934 1.564-6.37 2.622-1.21.89-2.082 1.533-3.6 1.533-1.8 0-3.155-1.111-3.155-2.583A1.28 1.28 0 0 0 2.048 8.87a1.28 1.28 0 0 0-1.29 1.27c0 2.875 2.519 5.126 5.732 5.126 2.374 0 3.781-1.036 5.141-2.037 1.52-1.119 2.952-2.174 6.118-2.174 3.166 0 4.6 1.055 6.118 2.174 1.36 1.001 2.767 2.037 5.14 2.037 3.215 0 5.732-2.251 5.732-5.125A1.28 1.28 0 0 0 33.45 8.87c-.71 0-1.287.57-1.287 1.27 0 1.473-1.357 2.584-3.156 2.584-1.517 0-2.391-.643-3.6-1.533-1.437-1.058-3.188-2.344-6.37-2.622V6.22c.821.015 1.686-.211 2.28-.742.165-.146.84-1.318 1.048-1.718.61-.996-.63-2.787-2.958-3.102a12.452 12.452 0 0 0-3.316 0z"/>
    </defs>
    <g fill="none" fill-rule="evenodd" transform="translate(2 2)">
        <circle cx="68.5" cy="71.5" r="68.5" fill="#F0E0C7"/>
        <g transform="translate(46.706 76.281)">
            <mask id="b" fill="#fff">
                <use xlink:href="#a"/>
            </mask>
            <path fill="#CCAF96" d="M-4.798 35.41h52.661V-5.188H-4.798z" mask="url(#b)"/>
        </g>
        <g transform="translate(47.824 75.178)">
            <mask id="d" fill="#fff">
                <use xlink:href="#c"/>
            </mask>
            <path fill="#EFDEC3" d="M-4.63 34.693h15.667V-5.332H-4.63z" mask="url(#d)"/>
        </g>
        <g transform="translate(59 71.87)">
            <mask id="f" fill="#fff">
                <use xlink:href="#e"/>
            </mask>
            <path fill="#FFFFFE" d="M-4.85 26.356h28.176V-5.44H-4.85z" mask="url(#f)"/>
        </g>
        <g transform="translate(41.118 80.693)">
            <mask id="h" fill="#fff">
                <use xlink:href="#g"/>
            </mask>
            <path fill="#CCAF96" d="M-5.136 25.375h17.85V-4.622h-17.85z" mask="url(#h)"/>
        </g>
        <g transform="translate(88.059 80.693)">
            <mask id="j" fill="#fff">
                <use xlink:href="#i"/>
            </mask>
            <path fill="#9E856F" d="M-5.413 25.375h17.775V-4.622H-5.413z" mask="url(#j)"/>
        </g>
        <g transform="translate(42.235 82.899)">
            <mask id="l" fill="#fff">
                <use xlink:href="#k"/>
            </mask>
            <path fill="#EFDEC3" d="M-4.97 21.146h15.64v-25.88H-4.97z" mask="url(#l)"/>
        </g>
        <g transform="translate(55.647 103.855)">
            <mask id="n" fill="#fff">
                <use xlink:href="#m"/>
            </mask>
            <path fill="#4D372A" d="M-5.347 9.108H8.52V-4.465H-5.347z" mask="url(#n)"/>
        </g>
        <g transform="translate(76.882 103.855)">
            <mask id="p" fill="#fff">
                <use xlink:href="#o"/>
            </mask>
            <path fill="#4D372A" d="M-4.569 9.108H9.294V-4.465H-4.569z" mask="url(#p)"/>
        </g>
        <g transform="translate(40 71.87)">
            <mask id="r" fill="#fff">
                <use xlink:href="#q"/>
            </mask>
            <path fill="#5A3C2B" d="M-5.302 41.093h67.005V-5.44H-5.302z" mask="url(#r)"/>
        </g>
        <g transform="translate(74.647 96.134)">
            <mask id="t" fill="#fff">
                <use xlink:href="#s"/>
            </mask>
            <path fill="#EFDEC3" d="M-4.807 12.245h15.046v-16.7H-4.807z" mask="url(#t)"/>
        </g>
        <g transform="translate(54.53 97.237)">
            <mask id="v" fill="#fff">
                <use xlink:href="#u"/>
            </mask>
            <path fill="#9E856F" d="M-5.41 13.182h17.516v-18.5H-5.41z" mask="url(#v)"/>
        </g>
        <g transform="translate(41.118 34.37)">
            <mask id="x" fill="#fff">
                <use xlink:href="#w"/>
            </mask>
            <path fill="#CCAF96" d="M-4.996 43.552h64.158v-48.51H-4.996z" mask="url(#x)"/>
        </g>
        <g transform="translate(41.118 35.472)">
            <mask id="z" fill="#fff">
                <use xlink:href="#y"/>
            </mask>
            <path fill="#EFDEC3" d="M-4.995 18.83h64.157V-5.055H-4.995z" mask="url(#z)"/>
        </g>
        <g transform="translate(55.647 34.37)">
            <mask id="B" fill="#fff">
                <use xlink:href="#A"/>
            </mask>
            <path fill="#FFF" d="M32.732.557a9.834 9.834 0 0 1-2.242 5.49c-2.4 2.918-6.198 4.35-9.982 3.957a85.805 85.805 0 0 0-1.982-.179c-.988 2.316-1.59 4.43-1.59 5.895 0 5.52 4.534 9.994 10.127 9.994 1.571 0 3.76-.454 6.094-1.23a36.824 36.824 0 0 0-.646-5.768c8.784-1.586 8.056-15.829.22-18.159" mask="url(#B)"/>
        </g>
        <g transform="translate(55.647 34.37)">
            <mask id="D" fill="#fff">
                <use xlink:href="#C"/>
            </mask>
            <path fill="#EFDEC3" d="M33.121 26.102c-.043-1.979-.025-3.66-.404-5.626l-.206-1.76c0-.002-1.266.23-1.266.228-.008-.04-.007-.08-.01-.12-.005-.045-.013-.089-.011-.133 0-.04.009-.078.014-.118.005-.043.006-.087.016-.129.008-.038.023-.074.036-.11.012-.042.023-.084.04-.124.015-.035.037-.066.056-.099.02-.039.039-.078.064-.115.02-.03.047-.056.07-.083.029-.036.056-.072.088-.104.027-.026.058-.046.087-.07.036-.028.068-.06.106-.085.034-.02.072-.036.107-.055.039-.02.076-.044.117-.06.04-.016.083-.025.125-.037.04-.012.078-.027.12-.036h.005c.003 0 1.682.818 1.683.818 4.582-.827 4.81-6.609 4.89-7.99.175-3.117-3.145-7.175-5.87-8.791-.138.567-.322 1.116-.544 1.649 1.237 3.283 4.52 8.563 1.07 11.747-1.204 1.113-3.698 1.476-3.582 2.822.154 1.79-.24 4.724-1.132 7.847a23.955 23.955 0 0 0 3.087-.694" mask="url(#D)"/>
        </g>
        <path stroke="#5A3C2B" stroke-linecap="round" stroke-linejoin="round" stroke-width="2.341" d="M86.709 72.407s2.09-5.6 2.093-10.075c.002-4.474-.644-9.247-.644-9.247s6.389-.926 6.336-8.42c-.054-7.919-6.336-10.292-6.336-10.292s-1.5 8.153-7.318 9.429c-6.38 1.4-11.205-.087-17.458.252-5.875.32-7.14 1.224-7.14 1.224"/>
        <path stroke="#5A3C2B" stroke-linecap="round" stroke-linejoin="round" stroke-width="2.341" d="M56.706 46.463s-1.51-5.334-7.652-8.838c-3.369-1.923-6.894-1.427-6.894-1.427s-1.308 4.94.54 10.204c1.848 5.263 5.312 6.683 5.312 6.683s-1.01 8.231-.33 11.873c.679 3.64 2.667 9.593 2.667 9.593"/>
        <path fill="#9E856F" d="M88.271 75.111h-35.91c-.638 0-1.155.57-1.155 1.272v3.734c0 .703.517 1.272 1.154 1.272h35.911c.635 0 1.155-.57 1.155-1.272v-3.734c0-.703-.52-1.272-1.155-1.272"/>
        <g transform="translate(51.176 74.075)">
            <mask id="F" fill="#fff">
                <use xlink:href="#E"/>
            </mask>
            <path fill="#9E856F" d="M-131.882 431.25h596.55v-781.985h-596.55z" mask="url(#F)"/>
        </g>
        <g transform="translate(51.176 74.075)">
            <mask id="H" fill="#fff">
                <use xlink:href="#G"/>
            </mask>
            <path fill="#9E856F" d="M-4.975 12.828h48.23V-4.479h-48.23z" mask="url(#H)"/>
        </g>
        <g transform="translate(46.706 72.972)">
            <mask id="J" fill="#fff">
                <use xlink:href="#I"/>
            </mask>
            <path fill="#AB2430" d="M-5.005 12.499h52.772V-4.81H-5.005z" mask="url(#J)"/>
        </g>
        <g transform="translate(46.706 71.87)">
            <mask id="L" fill="#fff">
                <use xlink:href="#K"/>
            </mask>
            <path fill="#FFFFFE" d="M-5.005 8.595h52.772V-4.978H-5.005z" mask="url(#L)"/>
        </g>
        <g transform="translate(57.882 75.178)">
            <mask id="N" fill="#fff">
                <use xlink:href="#M"/>
            </mask>
            <path fill="#FFFFFE" d="M-5.456 8.173H8.297V-5.4H-5.456z" mask="url(#N)"/>
        </g>
        <g transform="translate(48.941 75.178)">
            <mask id="P" fill="#fff">
                <use xlink:href="#O"/>
            </mask>
            <path fill="#FFFFFE" d="M-5.3 8.173H8.453V-5.4H-5.3z" mask="url(#P)"/>
        </g>
        <g transform="translate(65.706 75.178)">
            <mask id="R" fill="#fff">
                <use xlink:href="#Q"/>
            </mask>
            <path fill="#FFFFFE" d="M-4.494 8.173H9.259V-5.4H-4.494z" mask="url(#R)"/>
        </g>
        <g transform="translate(74.647 75.178)">
            <mask id="T" fill="#fff">
                <use xlink:href="#S"/>
            </mask>
            <path fill="#FFFFFE" d="M-4.652 8.173H9.102V-5.4H-4.652z" mask="url(#T)"/>
        </g>
        <g transform="translate(83.588 75.178)">
            <mask id="V" fill="#fff">
                <use xlink:href="#U"/>
            </mask>
            <path fill="#FFFFFE" d="M-4.807 8.173H8.946V-5.4H-4.807z" mask="url(#V)"/>
        </g>
        <g transform="translate(51.176 61.943)">
            <mask id="X" fill="#fff">
                <use xlink:href="#W"/>
            </mask>
            <path fill="#EFDEC3" d="M-4.483 13.796h43.016V-5.35H-4.483z" mask="url(#X)"/>
        </g>
        <g transform="translate(63.47 50.914)">
            <mask id="Z" fill="#fff">
                <use xlink:href="#Y"/>
            </mask>
            <path fill="#EFDEC3" d="M-4.971 8.44h19.404V-5.34H-4.97z" mask="url(#Z)"/>
        </g>
        <g>
            <path fill="#81C06B" stroke="#5A3C2B" stroke-linejoin="round" stroke-width="2" d="M80.085 65.752l3.659 2.427-7.666 12.806-20.51-11.957 1.591-2.658"/>
            <path fill="#6FB353" d="M64.923 68.897l-7.046-2.651 10.324-4.139 11.258 4.213-11.371 1.966z"/>
            <path fill="#B8E986" d="M79.516 66.458l2.904 1.969-6.655 11.266-12.152-7.146s7.418 1.59 11.244-1.174c3.825-2.765 4.108-4.533 4.108-4.533l.551-.382z"/>
            <path fill="#FFF" d="M68.01 67.212l-5.273-3.074 3.58-2.517 3.736 2.178z"/>
            <path stroke="#4D372A" stroke-linecap="round" stroke-linejoin="round" stroke-width=".781" d="M68.01 67.212l-5.273-3.074 3.58-2.517 3.736 2.178z"/>
            <path fill="#FFF" d="M65.373 65.674l-1.1-.641 2.044-3.413 1.1.642z"/>
            <path stroke="#4D372A" stroke-linecap="round" stroke-linejoin="round" stroke-width=".781" d="M65.373 65.674l-1.1-.641 2.044-3.413 1.1.642z"/>
            <path fill="#FFF" d="M69.357 64.962l-.65 1.086-3.737-2.179.65-1.085z"/>
            <path stroke="#4D372A" stroke-linecap="round" stroke-linejoin="round" stroke-width=".781" d="M69.357 64.962l-.65 1.086-3.737-2.179.65-1.085z"/>
            <path fill="#FFF12D" d="M76.73 69.808a2.062 2.062 0 0 1-2.752.894 2.009 2.009 0 0 1-.907-2.715 2.063 2.063 0 0 1 2.753-.896 2.01 2.01 0 0 1 .907 2.717"/>
            <path fill="#E8AE4A" d="M79.05 71.22a2.062 2.062 0 0 1-2.753.894 2.009 2.009 0 0 1-.907-2.715 2.063 2.063 0 0 1 2.753-.896 2.01 2.01 0 0 1 .906 2.717"/>
            <path fill="#CC2128" d="M60.847 67.203l8.151 4.8"/>
            <path stroke="#5A3C2B" stroke-linecap="round" stroke-linejoin="round" stroke-width="2.341" d="M60.847 67.203l8.151 4.8"/>
            <g>
                <path fill="#CC2128" d="M72.246 73.871l2.174 1.325"/>
                <path stroke="#5A3C2B" stroke-linecap="round" stroke-linejoin="round" stroke-width="2.341" d="M72.246 73.871l2.174 1.325"/>
            </g>
        </g>
        <g transform="translate(51.176 53.12)">
            <mask id="ab" fill="#fff">
                <use xlink:href="#aa"/>
            </mask>
            <path fill="#5A3C2B" d="M-4.87 9.163h18.525V-5.385H-4.87z" mask="url(#ab)"/>
        </g>
        <g transform="translate(75.765 53.12)">
            <mask id="ad" fill="#fff">
                <use xlink:href="#ac"/>
            </mask>
            <path fill="#5A3C2B" d="M-4.98 9.163h18.524V-5.385H-4.98z" mask="url(#ad)"/>
        </g>
        <g transform="translate(50.059 52.017)">
            <mask id="af" fill="#fff">
                <use xlink:href="#ae"/>
            </mask>
            <path fill="#5A3C2B" d="M-4.83 20.782h45.157V-4.967H-4.83z" mask="url(#af)"/>
        </g>
        <circle cx="22" cy="22" r="22" fill="#81C06B" stroke="#FFF" stroke-width="4"/>
        <text fill="#FFF" font-family="Podkova-ExtraBold, Podkova" font-size="24" font-weight="600" letter-spacing=".8">
            <tspan x="15" y="32">3</tspan>
        </text>
    </g>
</svg>
