<svg xmlns="http://www.w3.org/2000/svg" xmlns:xlink="http://www.w3.org/1999/xlink" width="139" height="142" viewBox="0 0 139 142">
    <defs>
        <path id="a" d="M43.808 5.92c-2.339 2.858-6.043 4.261-9.731 3.876a75.63 75.63 0 0 0-19.65.513C10.88 5.149 7.413 1.364.927 1.79-.014 4.359-.937 12.634 6.634 18.327h.004C5.428 24.636 5.9 30.94 8.05 37.246h36.315c2.153-6.305 2.624-12.61 1.413-18.92 8.565-1.553 7.855-15.499.215-17.78a9.643 9.643 0 0 1-2.186 5.375z"/>
        <path id="c" d="M43.808 5.827c-2.339 2.856-6.043 4.26-9.731 3.874a75.63 75.63 0 0 0-19.65.514C10.88 5.055 7.413 1.27.927 1.697.548 2.737.17 4.712.356 7.074c.1-1.236.335-2.242.572-2.888 5.749-.378 8.521 3.034 11.546 7.407a3.371 3.371 0 0 0 3.255 1.41c5.994-.862 12.48-1.425 18.348-.812 3.688.386 7.392-1.017 9.731-3.875a9.651 9.651 0 0 0 2.186-5.374c3.475 1.038 5.516 4.49 5.903 8.091.48-4.37-1.625-9.304-5.903-10.582a9.651 9.651 0 0 1-2.186 5.376z"/>
        <path id="e" d="M24.293 9.236c-3.81.84-7.051.62-10.392.398-2.113-.139-4.268-.279-6.63-.15C1.543 9.796.309 10.68.309 10.68l29.707 26.565s2.039-5.483 2.042-9.865c.002-4.381-.627-9.054-.627-9.054s6.227-.908 6.177-8.247C37.553 2.327 31.43.003 31.43.003s-1.463 7.985-7.137 9.233"/>
        <path id="g" d="M24.293 9.236c-3.81.84-7.051.62-10.392.398-2.113-.139-4.268-.279-6.63-.15C1.543 9.796.309 10.68.309 10.68l29.707 26.565s2.039-5.483 2.042-9.865c.002-4.381-.627-9.054-.627-9.054s6.227-.908 6.177-8.247C37.553 2.327 31.43.003 31.43.003s-1.463 7.985-7.137 9.233"/>
        <path id="i" d="M5.35 4.852c-2.525 0-4.331-1.697-4.331-3.772L.806 2.816c0 2.074 2.853 5.86 5.38 5.86 3.61 0 5.302-4.125 10.143-4.125 5.01 0 6.532 4.126 10.142 4.126 2.527 0 5.38-3.787 5.38-5.861l-.213-1.736c0 2.075-1.806 3.772-4.332 3.772C23.08 4.852 22.688.73 16.329.73 9.968.729 9.576 4.852 5.35 4.852z"/>
        <path id="k" d="M15.801.133c-2.27.308-3.48 2.062-2.883 3.037.202.393.86 1.539 1.021 1.681.58.52 1.423.742 2.223.728v2.3c-3.101.273-4.81 1.531-6.213 2.568-1.177.871-2.028 1.5-3.509 1.5-1.753 0-3.075-1.087-3.075-2.528A1.25 1.25 0 0 0 2.11 8.175 1.25 1.25 0 0 0 .852 9.419c0 2.814 2.455 5.018 5.588 5.018 2.315 0 3.686-1.014 5.013-1.994 1.481-1.095 2.878-2.13 5.966-2.13 3.086 0 4.484 1.035 5.965 2.13 1.326.98 2.697 1.994 5.012 1.994 3.134 0 5.588-2.204 5.588-5.018a1.25 1.25 0 0 0-1.257-1.244 1.25 1.25 0 0 0-1.255 1.244c0 1.441-1.323 2.528-3.076 2.528-1.48 0-2.332-.629-3.51-1.5-1.402-1.037-3.11-2.295-6.212-2.567v-2.3c.8.013 1.644-.208 2.223-.729.161-.142.82-1.288 1.022-1.681.595-.975-.614-2.73-2.884-3.037a11.912 11.912 0 0 0-1.616-.108c-.54 0-1.08.034-1.618.108z"/>
        <path id="m" d="M2.943.858C1.4 1.126.426 2.382.33 3.432c.522-.542 1.343-.997 2.394-1.14a11.928 11.928 0 0 1 1.618-.107c.539 0 1.08.034 1.616.108 1.052.142 1.873.597 2.395 1.14-.096-1.05-1.07-2.307-2.614-2.575a8.206 8.206 0 0 0-2.796 0z"/>
        <path id="o" d="M.692 10.28c0 5.614 3.713 10.167 8.289 10.167 4.578 0 8.287-4.553 8.287-10.168 0-5.614-3.71-10.167-8.287-10.167C4.405.112.692 4.665.692 10.28z"/>
        <path id="q" d="M33.626.514L1.938 4.836c-4.913 6.033 5.89 11.775 7.894 19.923 1.394 5.666 6.418 6.93 12.41 5.216 13.039-3.727 17.14-3.095 17.453-12.781 0 0 .572-16.702-5.662-16.703-.133 0-.268.008-.407.023"/>
        <path id="s" d="M36.987 1.014c.62 0 1.126.557 1.126 1.245v3.657c0 .688-.507 1.245-1.126 1.245H1.972c-.62 0-1.124-.557-1.124-1.245V2.26c0-.688.503-1.245 1.124-1.245h35.015z"/>
        <path id="u" d="M2.117.691A1.25 1.25 0 0 0 .861 1.936v3.657A1.25 1.25 0 0 0 2.117 6.84h39.098c.691 0 1.257-.558 1.257-1.246V1.936c0-.688-.566-1.245-1.257-1.245H2.117z"/>
        <path id="v" d="M2.117.526A1.25 1.25 0 0 0 .861 1.771v1.245a1.25 1.25 0 0 1 1.256-1.245h39.098c.691 0 1.257.557 1.257 1.245V1.771c0-.688-.566-1.245-1.257-1.245H2.117z"/>
        <path id="x" d="M.947 1.358a1.25 1.25 0 0 0 1.256 1.245A1.25 1.25 0 0 0 3.46 1.358 1.25 1.25 0 0 0 2.203.112 1.25 1.25 0 0 0 .947 1.358z"/>
        <path id="z" d="M.01 1.358a1.25 1.25 0 0 0 1.256 1.245 1.25 1.25 0 0 0 1.256-1.245A1.25 1.25 0 0 0 1.266.112 1.25 1.25 0 0 0 .01 1.358z"/>
        <path id="B" d="M.796 1.358A1.25 1.25 0 0 0 2.05 2.603a1.25 1.25 0 0 0 1.256-1.245A1.25 1.25 0 0 0 2.051.112 1.25 1.25 0 0 0 .796 1.358z"/>
        <path id="D" d="M.642 1.358a1.25 1.25 0 0 0 1.256 1.245 1.25 1.25 0 0 0 1.257-1.245A1.25 1.25 0 0 0 1.898.112 1.25 1.25 0 0 0 .642 1.358z"/>
        <path id="F" d="M.49 1.358a1.25 1.25 0 0 0 1.257 1.245 1.25 1.25 0 0 0 1.255-1.245A1.25 1.25 0 0 0 1.747.112 1.25 1.25 0 0 0 .49 1.358z"/>
        <path id="H" d="M15.024.518C6.996.518.488 7.781.488 16.74v5c0 3.784 2.749 6.85 6.139 6.85H43.76c3.391 0 6.139-3.066 6.139-6.85v-5c0-8.959 11.01-16.222 2.981-16.222"/>
        <path id="J" d="M27.102.986L11.448 6.941C8.555 8.041.853 11.634.853 20.87v12.61c0 3.157 3.79.79 5.735-.048-.602-1.449-.964-3.288-.964-5.295 0-4.667 1.948-8.449 4.35-8.449 2.403 0 4.35 3.782 4.35 8.45 0 .838-.065 1.647-.181 2.41l10.128-3.852c-1.158-1.516-1.92-4.09-1.92-7.008 0-4.665 1.947-8.447 4.349-8.447 1.574 0 2.948 1.625 3.712 4.054V5.739c0-2.895-1.127-4.884-2.629-4.884-.22 0-.448.042-.68.131z"/>
    </defs>
    <g fill="none" fill-rule="evenodd" transform="translate(2 2)">
        <circle cx="68.5" cy="71.5" r="68.5" fill="#F0E0C7"/>
        <path fill="#9E856F" d="M64.229 76.227h37.855c8.029 0-2.981 7.263-2.981 16.221v5c0 3.784-2.749 6.852-6.139 6.852H55.831c-3.39 0-6.139-3.068-6.139-6.851v-5c0-8.96 6.508-16.222 14.537-16.222"/>
        <path stroke="#5A3C2B" stroke-linecap="round" stroke-linejoin="round" stroke-width="2.292" d="M64.229 76.227h37.855c8.029 0-2.981 7.263-2.981 16.221v5c0 3.784-2.749 6.852-6.139 6.852H55.831c-3.39 0-6.139-3.068-6.139-6.851v-5c0-8.96 6.508-16.222 14.537-16.222z"/>
        <g transform="translate(47.077 32.323)">
            <mask id="b" fill="#fff">
                <use xlink:href="#a"/>
            </mask>
            <path fill="#CFAB8E" d="M-5.143 42.646h62.557v-47.5H-5.143z" mask="url(#b)"/>
        </g>
        <g transform="translate(47.077 33.403)">
            <mask id="d" fill="#fff">
                <use xlink:href="#c"/>
            </mask>
            <path fill="#EFDEC3" d="M-5.141 18.438h62.555V-4.95H-5.141z" mask="url(#d)"/>
        </g>
        <g transform="translate(61.244 32.323)">
            <mask id="f" fill="#fff">
                <use xlink:href="#e"/>
            </mask>
            <path fill="#FFF" d="M31.644.545a9.651 9.651 0 0 1-2.186 5.376c-2.34 2.857-6.043 4.26-9.733 3.875a83.317 83.317 0 0 0-1.932-.175c-.963 2.268-1.55 4.338-1.55 5.772 0 5.405 4.42 9.786 9.873 9.786 1.533 0 3.666-.445 5.943-1.204a36.206 36.206 0 0 0-.63-5.648c8.564-1.554 7.855-15.5.215-17.782" mask="url(#f)"/>
        </g>
        <g transform="translate(61.244 32.323)">
            <mask id="h" fill="#fff">
                <use xlink:href="#g"/>
            </mask>
            <path fill="#A78B76" d="M30.382 19.5l-.002-.007c-.008-.042-.007-.082-.01-.122-.005-.044-.014-.088-.013-.13.002-.042.011-.08.016-.12.005-.043.006-.087.017-.13.009-.038.026-.073.038-.11.015-.041.026-.083.045-.123.017-.035.04-.066.06-.099.023-.039.044-.078.07-.115.024-.03.053-.056.079-.083.031-.036.06-.072.096-.104.028-.025.062-.046.094-.07.038-.028.074-.06.116-.084.036-.021.078-.038.117-.056.041-.02.082-.044.128-.06.042-.016.089-.025.134-.037.045-.012.086-.027.133-.035l.01-.002c4.996-.827 5.663-5.394 5.747-6.774.194-3.116-1.185-6.697-4.16-8.311a10.419 10.419 0 0 1-.59 1.65c1.349 3.281 4.102 7.686.338 10.871-1.314 1.112-4.033 1.474-3.908 2.82.484 5.164-3.996 19.821-12.164 21.185l11.286.901 1.095-.915c-.338-.331-.474-.81-.303-1.266 2.316-6.197 2.831-12.48 1.53-18.674z" mask="url(#h)"/>
            <path fill="#EFDEC3" d="M32.024 25.559c-.043-1.938-.025-3.583-.395-5.51l-.2-1.723 1.41-.422c4.468-.81 4.691-6.471 4.767-7.824.172-3.053-3.065-7.026-5.723-8.608a10.815 10.815 0 0 1-.53 1.614c1.207 3.215 4.408 8.385 1.044 11.503-1.174 1.09-3.606 1.445-3.493 2.763.15 1.754-.234 4.626-1.103 7.684a23.272 23.272 0 0 0 3.01-.68l1.213 1.203z" mask="url(#h)"/>
        </g>
        <path stroke="#5A3C2B" stroke-linecap="round" stroke-linejoin="round" stroke-width="2.292" d="M91.26 69.569s2.038-5.483 2.04-9.865c.003-4.381-.627-9.055-.627-9.055s6.229-.907 6.178-8.245c-.054-7.754-6.178-10.078-6.178-10.078s-1.463 7.984-7.136 9.233c-6.22 1.37-10.926-.085-17.022.247-5.729.313-6.962 1.198-6.962 1.198"/>
        <path stroke="#5A3C2B" stroke-linecap="round" stroke-linejoin="round" stroke-width="2.292" d="M62.006 44.165s-1.474-5.223-7.462-8.654c-3.285-1.883-6.723-1.398-6.723-1.398s-1.274 4.838.528 9.992c1.802 5.154 5.178 6.544 5.178 6.544s-.983 8.06-.321 11.626c.662 3.565 2.6 9.394 2.6 9.394"/>
        <path fill="#A78B76" d="M87.354 65.12c-1.362 2.468-3.646 3.846-6.853 4.134-1.993.179-4.157-1.54-7.145-1.54-3.615 0-4.955 2.233-6.663 2.29-3.978.136-7.61.535-10.898 1.199l.847-.334h33.13c.764-2.79 1.145-4.375 1.145-4.755 0-.381-1.187-.712-3.563-.994z"/>
        <g transform="translate(56.885 59.323)">
            <mask id="j" fill="#fff">
                <use xlink:href="#i"/>
            </mask>
            <path fill="#EFDEC3" d="M-4.642 14.077H37.3V-4.671H-4.642z" mask="url(#j)"/>
        </g>
        <g transform="translate(55.795 50.683)">
            <mask id="l" fill="#fff">
                <use xlink:href="#k"/>
            </mask>
            <path fill="#5A3C2B" d="M-4.597 19.837h44.03V-5.375h-44.03z" mask="url(#l)"/>
        </g>
        <g stroke="#5A3C2B" stroke-linecap="round" stroke-linejoin="round" stroke-width="2.75">
            <path d="M85.38 50.159v2.95M61.664 50.159v2.95"/>
        </g>
        <g transform="translate(68.872 48.523)">
            <mask id="n" fill="#fff">
                <use xlink:href="#m"/>
            </mask>
            <path fill="#EFDEC3" d="M-5.119 8.832h18.92V-4.66h-18.92z" mask="url(#n)"/>
        </g>
        <path fill="#C4A98E" d="M52.297 75.716c3.605 3.408 0 11.557 2.003 19.705 1.394 5.664 14.867 7.549 20.975 6.305 14.37-2.93 18.813-2.563 19.126-12.25 0 0 .597-17.417-6.068-16.679"/>
        <g transform="translate(64.513 72.283)">
            <mask id="p" fill="#fff">
                <use xlink:href="#o"/>
            </mask>
            <path fill="#FFFFFE" d="M-4.756 25.847h27.474V-5.288H-4.756z" mask="url(#p)"/>
        </g>
        <g transform="translate(54.705 72.283)">
            <mask id="r" fill="#fff">
                <use xlink:href="#q"/>
            </mask>
            <path fill="#9E856F" d="M-.85 16.88c-.456-.102 1.066-.492 3.303 1.2 6.367 4.815 10.373 6.551 25.519 5.9 8.813-.379 11.723-6.786 11.723-6.786.014 8.334-8.15 11.844-23.134 12.615-6.08.313-7.265-3.04-9.985-3.174-.93-2.222-4.953-3.891-7.996-4.289" mask="url(#r)"/>
        </g>
        <path stroke="#5A3C2B" stroke-linecap="round" stroke-linejoin="round" stroke-width="2.292" d="M56.643 77.12c-4.913 6.032 5.89 11.774 7.894 19.922 1.393 5.666 6.419 6.93 12.41 5.216 13.039-3.727 17.14-3.095 17.453-12.781 0 0 .598-17.418-6.067-16.679"/>
        <path fill="#9E856F" d="M92.783 72.217H57.768c-.621 0-1.126.557-1.126 1.245v3.657c0 .688.505 1.245 1.126 1.245h35.015c.619 0 1.125-.557 1.125-1.245v-3.657c0-.688-.506-1.245-1.125-1.245"/>
        <g transform="translate(55.795 71.203)">
            <mask id="t" fill="#fff">
                <use xlink:href="#s"/>
            </mask>
            <path fill="#9E856F" d="M-127.771 422.28h581.66v-765.72h-581.66z" mask="url(#t)"/>
        </g>
        <use fill="#BE1E2D" transform="translate(51.436 70.123)" xlink:href="#u"/>
        <g transform="translate(51.436 69.043)">
            <mask id="w" fill="#fff">
                <use xlink:href="#v"/>
            </mask>
            <path fill="#FFFFFE" d="M-4.588 8.416h52.509v-13.29H-4.588z" mask="url(#w)"/>
        </g>
        <g transform="translate(62.334 72.283)">
            <mask id="y" fill="#fff">
                <use xlink:href="#x"/>
            </mask>
            <path fill="#FFFFFE" d="M-4.502 8.003h13.41v-13.29h-13.41z" mask="url(#y)"/>
        </g>
        <g transform="translate(54.705 72.283)">
            <mask id="A" fill="#fff">
                <use xlink:href="#z"/>
            </mask>
            <path fill="#FFFFFE" d="M-5.439 8.003h13.41v-13.29H-5.44z" mask="url(#A)"/>
        </g>
        <g transform="translate(71.052 72.283)">
            <mask id="C" fill="#fff">
                <use xlink:href="#B"/>
            </mask>
            <path fill="#FFFFFE" d="M-4.653 8.003h13.41v-13.29h-13.41z" mask="url(#C)"/>
        </g>
        <g transform="translate(79.77 72.283)">
            <mask id="E" fill="#fff">
                <use xlink:href="#D"/>
            </mask>
            <path fill="#FFFFFE" d="M-4.807 8.003h13.41v-13.29h-13.41z" mask="url(#E)"/>
        </g>
        <g transform="translate(88.488 72.283)">
            <mask id="G" fill="#fff">
                <use xlink:href="#F"/>
            </mask>
            <path fill="#FFFFFE" d="M-4.958 8.003H8.45v-13.29h-13.41z" mask="url(#G)"/>
        </g>
        <g>
            <path fill="#C4A98E" d="M49.401 86.841c5.75-4.231 20.165 6.854 11.752 15.376-3.766 3.817-8.843 1.48-11.508-2.248-4.155-5.813-5.12-9.539-.244-13.128"/>
            <path fill="#EFDEC3" d="M56.6 99.724c6.533 1.416 6.7-5.449 5.715-1.266-1.844 7.844-10.747 5.227-13.315.686-1.706-3.018-2.894-8.098-2.894-8.098s3.8 7.226 10.495 8.678"/>
            <path stroke="#4D372A" stroke-linecap="round" stroke-linejoin="round" stroke-width="2.292" d="M49.401 86.841c5.75-4.231 20.165 6.854 11.752 15.376-3.766 3.817-8.843 1.48-11.508-2.248-4.155-5.813-5.12-9.539-.244-13.128z"/>
            <path fill="#C4A98E" d="M81.316 90.775c3.906 5.948-8.15 19.522-16.212 10.673-3.61-3.962-.943-8.838 2.977-11.245 6.11-3.75 9.923-4.473 13.235.572"/>
            <path stroke="#4D372A" stroke-linecap="round" stroke-linejoin="round" stroke-width="2.292" d="M81.316 90.775c3.906 5.948-8.15 19.522-16.212 10.673-3.61-3.962-.943-8.838 2.977-11.245 6.11-3.75 9.923-4.473 13.235.572z"/>
            <path fill="#9E856F" d="M64.537 92.737c-4.194 0-7.596-3.37-7.596-7.527s3.402-7.527 7.596-7.527 7.596 3.37 7.596 7.527c0 4.158-3.402 7.527-7.596 7.527m0-19.23c-6.521 0-11.807 5.24-11.807 11.703 0 6.463 5.286 11.703 11.807 11.703 6.521 0 11.807-5.24 11.807-11.703 0-6.463-5.286-11.702-11.807-11.702"/>
            <path stroke="#5A3C2B" stroke-linecap="round" stroke-linejoin="round" stroke-width="2.292" d="M64.537 92.737c-4.194 0-7.596-3.37-7.596-7.527s3.402-7.527 7.596-7.527 7.596 3.37 7.596 7.527c0 4.158-3.402 7.527-7.596 7.527zm0-19.23c-6.521 0-11.807 5.24-11.807 11.703 0 6.463 5.286 11.703 11.807 11.703 6.521 0 11.807-5.24 11.807-11.703 0-6.463-5.286-11.702-11.807-11.702z"/>
            <path fill="#CFAB8E" d="M59.298 77.085c1.408 2.097.145 5.382-2.818 7.335-2.964 1.953-6.508 1.836-7.916-.261-1.407-2.097-.145-5.382 2.82-7.334 2.964-1.954 6.506-1.837 7.914.26"/>
            <path stroke="#5A3C2B" stroke-linecap="round" stroke-linejoin="round" stroke-width="2.292" d="M59.298 77.085c1.408 2.097.145 5.382-2.818 7.335-2.964 1.953-6.508 1.836-7.916-.261-1.407-2.097-.145-5.382 2.82-7.334 2.964-1.954 6.506-1.837 7.914.26z"/>
            <path fill="#CFAB8E" d="M78.879 83.85c-1.397 2.104-4.94 2.238-7.914.3-2.974-1.94-4.253-5.217-2.856-7.32 1.397-2.106 4.94-2.24 7.914-.301 2.974 1.939 4.253 5.215 2.856 7.32"/>
            <path stroke="#5A3C2B" stroke-linecap="round" stroke-linejoin="round" stroke-width="2.292" d="M79.336 84.054c-1.397 2.105-4.94 2.239-7.914.3-2.974-1.939-4.253-5.216-2.856-7.32 1.397-2.105 4.94-2.24 7.914-.3 2.973 1.938 4.253 5.215 2.856 7.32z"/>
            <path fill="#A78B76" d="M78.45 80.594c.451 1.326.495 2.156.13 2.489-1.178 1.075-3.766 1.187-5.294.64-2.238-.801-3.599-2.18-4.084-4.136 1.482 1.734 3.2 2.498 5.157 2.295 1.956-.204 3.32-.633 4.09-1.288zM49.412 80.943c-.815 2.14.225 3.306 3.121 3.496 2.897.19 4.927-1.315 6.09-4.515-.248.192-1.28.686-3.096 1.48-1.18.515-3.219.362-6.115-.461z"/>
            <path fill="#C4A98E" d="M49.025 83.6H86.88c8.029 0-2.981 7.264-2.981 16.222v5c0 3.784-2.749 6.851-6.139 6.851H40.627c-3.39 0-6.139-3.067-6.139-6.85v-5c0-8.96 6.508-16.222 14.537-16.222"/>
        </g>
        <g transform="translate(34 83.083)">
            <mask id="I" fill="#fff">
                <use xlink:href="#H"/>
            </mask>
            <use fill="#F6DFC3" xlink:href="#H"/>
            <path fill="#CFAB8E" d="M15.025.518S2.664 2.136.488 16.739c-2.175 14.604 10.205 11.853 10.205 11.853l33.067-.002-1.265-6.85S8.053 25.295 8.053 12.694C8.053.092 15.025.518 15.025.518" mask="url(#I)"/>
        </g>
        <g>
            <path stroke="#5A3C2B" stroke-linecap="round" stroke-linejoin="round" stroke-width="2.292" d="M49.025 83.6H86.88c8.029 0-2.981 7.264-2.981 16.222v5c0 3.784-2.749 6.851-6.139 6.851H40.627c-3.39 0-6.139-3.067-6.139-6.85v-5c0-8.96 6.508-16.222 14.537-16.222z"/>
            <path fill="#C4A98E" d="M103.201 87.842c1.573 0 2.947 1.626 3.71 4.055v-9.555c0-3.32-1.481-5.447-3.309-4.753l-15.655 5.954c-2.892 1.1-10.594 4.693-10.594 13.928v12.61c0 3.157 3.79.792 5.735-.046-.602-1.45-.964-3.29-.964-5.296 0-4.666 1.948-8.448 4.35-8.448 2.404 0 4.351 3.782 4.351 8.448 0 .838-.065 1.647-.182 2.412l10.128-3.852c-1.158-1.518-1.92-4.09-1.92-7.008 0-4.667 1.947-8.45 4.35-8.45"/>
        </g>
        <g transform="translate(76.5 76.603)">
            <mask id="K" fill="#fff">
                <use xlink:href="#J"/>
            </mask>
            <use fill="#F6DFC3" xlink:href="#J"/>
            <path fill="#CFAB8E" d="M30.412 15.294L1.537 26.735l-.277 8.336 27.255-9.753z" mask="url(#K)"/>
        </g>
        <g>
            <path stroke="#5A3C2B" stroke-linecap="round" stroke-linejoin="round" stroke-width="2.292" d="M103.201 87.842c1.573 0 2.947 1.626 3.71 4.055v-9.555c0-3.32-1.481-5.447-3.309-4.753l-15.655 5.954c-2.892 1.1-10.594 4.693-10.594 13.928v12.61c0 3.157 3.79.792 5.735-.046-.602-1.45-.964-3.29-.964-5.296 0-4.666 1.948-8.448 4.35-8.448 2.404 0 4.351 3.782 4.351 8.448 0 .838-.065 1.647-.182 2.412l10.128-3.852c-1.158-1.518-1.92-4.09-1.92-7.008 0-4.667 1.947-8.45 4.35-8.45z"/>
            <path fill="#CC2128" d="M75.299 96.935c0 2.084-1.705 3.773-3.808 3.773-2.103 0-3.807-1.689-3.807-3.773 0-2.085 1.704-3.774 3.807-3.774 2.103 0 3.808 1.69 3.808 3.774M44.693 96.935c0 2.084-1.705 3.773-3.808 3.773-2.103 0-3.807-1.689-3.807-3.773 0-2.085 1.704-3.774 3.807-3.774 2.103 0 3.808 1.69 3.808 3.774"/>
            <path fill="#C4A98E" d="M35.584 104.823h40.91"/>
            <path stroke="#5A3C2B" stroke-linecap="round" stroke-linejoin="round" stroke-width="2.292" d="M35.584 104.823h40.91"/>
            <path fill="#9E856F" d="M103.034 89.127c-1.89 0-3.424 2.977-3.424 6.65 0 1.579.285 3.027.759 4.167.627 1.512 1.587 2.481 2.665 2.481 1.55 0 2.86-2.003 3.28-4.75.093-.602.144-1.238.144-1.898 0-3.673-1.533-6.65-3.424-6.65"/>
            <path stroke="#5A3C2B" stroke-linecap="round" stroke-linejoin="round" stroke-width="2.292" d="M103.034 89.127c-1.89 0-3.424 2.977-3.424 6.65 0 1.579.285 3.027.759 4.167.627 1.512 1.587 2.481 2.665 2.481 1.55 0 2.86-2.003 3.28-4.75.093-.602.144-1.238.144-1.898 0-3.673-1.533-6.65-3.424-6.65z"/>
            <path fill="#9E856F" d="M86.348 97.713c-1.89 0-3.424 2.976-3.424 6.65 0 1.578.285 3.026.759 4.167.627 1.512 1.587 2.48 2.665 2.48 1.55 0 2.86-2.003 3.28-4.75.093-.602.144-1.238.144-1.898 0-3.673-1.533-6.65-3.424-6.65"/>
            <path stroke="#5A3C2B" stroke-linecap="round" stroke-linejoin="round" stroke-width="2.292" d="M86.348 97.713c-1.89 0-3.424 2.976-3.424 6.65 0 1.578.285 3.026.759 4.167.627 1.512 1.587 2.48 2.665 2.48 1.55 0 2.86-2.003 3.28-4.75.093-.602.144-1.238.144-1.898 0-3.673-1.533-6.65-3.424-6.65zM46.106 104.426c0-2.656 3.872-4.808 8.647-4.808s8.647 2.152 8.647 4.808"/>
        </g>
        <circle cx="22" cy="22" r="22" fill="#81C06B" stroke="#FFF" stroke-width="4"/>
        <text fill="#FFF" font-family="Podkova-ExtraBold, Podkova" font-size="24" font-weight="600" letter-spacing=".8">
            <tspan x="16" y="32">4</tspan>
        </text>
    </g>
</svg>
