<svg xmlns="http://www.w3.org/2000/svg" xmlns:xlink="http://www.w3.org/1999/xlink" width="139" height="142" viewBox="0 0 139 142">
    <defs>
        <path id="a" d="M2.392.325a46.296 46.296 0 0 0-.985 4.991c-.869 6.045-.834 12.95.112 18.924 0 .01 0 .024.003.032.687 4.344 4.406 5.593 8.798 5.623h.034a5.132 5.132 0 0 0 5.052-5.849c3.927.306 7.848.306 11.776 0a5.132 5.132 0 0 0 5.051 5.849h.035c4.392-.025 8.11-1.28 8.798-5.623l.002-.018c.946-5.983.982-12.896.112-18.947a45.869 45.869 0 0 0-.982-4.982H2.392z"/>
        <path id="c" d="M2.415.85c.14.267.187.582.106.896a44.472 44.472 0 0 0-.96 4.854c-.853 5.946-.814 12.708.11 18.546a.24.24 0 0 1 .009.066c.228 1.394.886 3.106 3.52 3.966C1.872 22.134 3.668 4.787 5.388.183L2.415.85z"/>
        <path id="e" d="M.73 10.458c0 5.734 3.764 10.383 8.406 10.383 4.642 0 8.406-4.649 8.406-10.383 0-5.734-3.764-10.383-8.406-10.383C4.494.075.73 4.724.73 10.458z"/>
        <path id="g" d="M6.838 19.86l.207-.031c-.946-5.975-.98-12.88-.112-18.925L6.838.892c-6.166 3.605-10.594 16.846 0 18.969z"/>
        <path id="i" d="M.285.896c.87 6.05.835 12.964-.111 18.946l.133.019C10.901 17.738 6.475 4.497.307.892L.285.896z"/>
        <path id="k" d="M.72 11.535c.315 1.872 1.313 3.242 2.967 4.096-2.613-4.112-.45-9.322.659-12.494 0 0 .53-1.719.679-2.356C2.303 3.196.085 7.747.72 11.535z"/>
        <path id="m" d="M1.512 1.05a1.272 1.272 0 1 0 0 2.543h.112a1.273 1.273 0 1 0 0-2.543h-.112z"/>
        <path id="o" d="M2.282 1.05a1.272 1.272 0 1 0 0 2.543h.109a1.273 1.273 0 1 0 0-2.543h-.109z"/>
        <path id="q" d="M45.31.158a1.27 1.27 0 0 0-.736 1.643c.38.99.724 2.086 1.023 3.254.382 1.472.7 3.1.952 4.844.857 5.954.82 12.72-.108 18.566 0 .006 0 .013-.003.022-.305 1.937-1.42 4.51-7.538 4.548h-.028a3.87 3.87 0 0 1-3.798-4.4c.266-1.888 1.91-3.311 3.824-3.314l.002.001a1.267 1.267 0 0 0 .453-.087c.025-.01.052-.02.077-.032.047-.022.092-.048.136-.074.02-.013.041-.023.06-.036.06-.043.12-.09.173-.142l.011-.015c.048-.048.092-.101.132-.158.014-.02.027-.042.04-.063a1.385 1.385 0 0 0 .107-.218c.008-.02.018-.038.024-.06.368-1.145.523-4.559.008-6.29a1.275 1.275 0 0 0-2.443.725c.28.937.267 2.848.143 4a6.454 6.454 0 0 0-5.033 4.382c-3.232.21-6.495.21-9.727 0a6.446 6.446 0 0 0-4.609-4.29l.001-.004c.338-2.375.602-6.592-.206-7.96a1.277 1.277 0 0 0-1.747-.446c-.599.354-.802 1.121-.462 1.721.422.986.073 6.27-.29 7.356l-.002.01-.03.088c0 .01-.002.02-.005.025l-.006.032a.527.527 0 0 1-.004.018l-.003.02a1.142 1.142 0 0 0-.015.35c.002.023.01.047.013.069.006.043.015.085.026.125.006.024.007.047.015.07.012.036.024.07.038.102l.004.007c.009.029.024.056.037.085.012.022.026.047.041.07l.034.054.006.007.021.034c.03.041.063.08.098.117.008.01.017.016.025.023a1.217 1.217 0 0 0 .403.278l.026.01c.023.01.045.02.07.029a1.284 1.284 0 0 0 .166.043c.04.007.08.014.12.018.041.003.082.006.124.006h.001a3.878 3.878 0 0 1 3.827 3.325 3.868 3.868 0 0 1-3.792 4.39h-.036c-6.078-.042-7.218-2.585-7.533-4.515a.24.24 0 0 0-.01-.066c-.923-5.838-.962-12.6-.108-18.546.248-1.728.57-3.362.959-4.854a1.274 1.274 0 0 0-2.468-.636 46.78 46.78 0 0 0-.915 4.46v.002C2.592 11.676-.398 18.125.418 22.982 1 26.461 3.36 28.857 7.085 29.79c1.004 3.808 4.314 5.753 9.859 5.789h.051a6.426 6.426 0 0 0 6.335-5.759c1.527.09 3.061.138 4.596.138a78.78 78.78 0 0 0 4.595-.138c.322 3.206 3.04 5.736 6.343 5.759h.043c5.552-.032 8.866-1.983 9.86-5.804v-.001c3.681-.948 6.013-3.338 6.592-6.792.81-4.826-2.136-11.222-6.376-14.046a47.152 47.152 0 0 0-.917-4.513 33.156 33.156 0 0 0-1.112-3.53 1.275 1.275 0 0 0-1.192-.818h-.007c-.147 0-.298.026-.445.083zM2.931 22.564c-.57-3.4 1.16-7.416 3.488-9.95-.435 4.73-.362 9.762.214 14.376v.002c-2.1-.807-3.344-2.29-3.702-4.428zm46.507-9.861c2.288 2.539 3.973 6.5 3.41 9.861-.356 2.109-1.573 3.581-3.623 4.395.567-4.575.64-9.563.213-14.256z"/>
        <path id="s" d="M.811 4.37a3.814 3.814 0 0 0 .42 2.36C1.338 4.503 3.4 2.065 4.6 1.06c-1.898.019-3.524 1.435-3.788 3.31z"/>
        <path id="u" d="M.176 7.491a16.64 16.64 0 0 0 2.406.177h.035a3.868 3.868 0 0 0 3.792-4.39A3.874 3.874 0 0 0 3.925.198C5.207 2.976 3.518 6.86.175 7.49z"/>
        <path id="w" d="M44.707 6.046c-2.373 2.919-6.129 4.351-9.871 3.958a76.179 76.179 0 0 0-19.93.524c-3.596-5.27-7.112-9.135-13.69-8.7C.262 4.452-.674 12.903 7.005 18.717h.003c-1.226 6.443-.748 12.882 1.434 19.321h36.832c2.183-6.439 2.66-12.878 1.433-19.321 8.686-1.586 7.967-15.829.218-18.159a9.892 9.892 0 0 1-2.217 5.49z"/>
        <path id="y" d="M44.707 5.95c-2.373 2.918-6.129 4.351-9.871 3.957a76.179 76.179 0 0 0-19.93.525c-3.596-5.27-7.112-9.135-13.69-8.7-.386 1.063-.77 3.08-.58 5.492.102-1.261.34-2.29.58-2.949 5.831-.386 8.643 3.098 11.711 7.564a3.41 3.41 0 0 0 3.302 1.44c6.079-.88 12.656-1.455 18.607-.829 3.742.394 7.498-1.039 9.87-3.957a9.892 9.892 0 0 0 2.218-5.489c3.525 1.06 5.595 4.585 5.987 8.264.486-4.463-1.648-9.502-5.987-10.807a9.892 9.892 0 0 1-2.217 5.49z"/>
        <path id="A" d="M24.914 9.432c-3.864.858-7.151.633-10.54.406-2.144-.14-4.328-.284-6.724-.153-5.81.32-7.062 1.223-7.062 1.223l30.13 27.13s2.067-5.6 2.07-10.075c.002-4.475-.637-9.247-.637-9.247s6.317-.927 6.266-8.422C38.363 2.377 32.15.004 32.15.004s-1.483 8.153-7.237 9.428"/>
        <path id="C" d="M24.914 9.432c-3.864.858-7.151.633-10.54.406-2.144-.14-4.328-.284-6.724-.153-5.81.32-7.062 1.223-7.062 1.223l30.13 27.13s2.067-5.6 2.07-10.075c.002-4.475-.637-9.247-.637-9.247s6.317-.927 6.266-8.422C38.363 2.377 32.15.004 32.15.004s-1.483 8.153-7.237 9.428"/>
        <path id="E" d="M36.684 1.036c.627 0 1.141.569 1.141 1.271v3.735c0 .702-.514 1.272-1.141 1.272H1.17C.54 7.314.03 6.744.03 6.042V2.307c0-.702.511-1.271 1.141-1.271h35.514z"/>
        <path id="G" d="M1.17 1.036h35.514c.627 0 1.14.569 1.14 1.271v3.735c0 .702-.513 1.272-1.14 1.272H1.17c-.63 0-1.14-.57-1.14-1.272V2.307c0-.702.51-1.271 1.14-1.271z"/>
        <path id="I" d="M1.715.706c-.69 0-1.249.569-1.249 1.272v3.734a1.26 1.26 0 0 0 1.25 1.272h38.858c.685 0 1.248-.57 1.248-1.272V1.978c0-.703-.563-1.272-1.248-1.272H1.715z"/>
        <path id="K" d="M1.715.537c-.69 0-1.249.57-1.249 1.272V3.08a1.26 1.26 0 0 1 1.25-1.272h38.858c.685 0 1.248.569 1.248 1.272V1.809c0-.703-.563-1.272-1.248-1.272H1.715z"/>
        <path id="M" d="M.13 1.386c0 .703.57 1.272 1.275 1.272.703 0 1.274-.569 1.274-1.272C2.68.684 2.108.115 1.405.115.7.115.129.684.129 1.386z"/>
        <path id="O" d="M.284 1.386c0 .703.57 1.272 1.274 1.272a1.272 1.272 0 1 0 0-2.543C.854.115.284.684.284 1.386z"/>
        <path id="Q" d="M1.082 1.386A1.273 1.273 0 1 0 2.355.114c-.704 0-1.273.57-1.273 1.272z"/>
        <path id="S" d="M.925 1.386c0 .703.57 1.272 1.274 1.272a1.272 1.272 0 1 0 0-2.543C1.495.115.925.684.925 1.386z"/>
        <path id="U" d="M.773 1.386a1.273 1.273 0 1 0 2.545-.002 1.273 1.273 0 0 0-2.545.002z"/>
        <path id="W" d="M4.702 4.376C2.14 4.376.308 2.642.308.523L.092 2.295c0 2.119 2.894 5.986 5.457 5.986 3.661 0 5.379-4.212 10.286-4.212 5.082 0 6.625 4.212 10.287 4.212 2.564 0 5.458-3.867 5.458-5.986L31.363.523c0 2.119-1.831 3.853-4.394 3.853-4.284 0-4.684-4.212-11.134-4.212-6.449 0-6.847 4.212-11.133 4.212z"/>
        <path id="Y" d="M3.26.297C1.694.57.708 1.853.61 2.925c.53-.554 1.362-1.018 2.428-1.164a12.208 12.208 0 0 1 3.28 0c1.067.146 1.9.61 2.429 1.164C8.649 1.853 7.662.57 6.096.297a8.194 8.194 0 0 0-2.835 0z"/>
        <path id="aa" d="M1.083 1.478a1.27 1.27 0 0 0 0 1.798 1.276 1.276 0 0 0 1.802 0 2.068 2.068 0 0 1 2.918 0 1.271 1.271 0 0 0 1.8 0 1.268 1.268 0 0 0 0-1.798A4.583 4.583 0 0 0 4.343.129c-1.23 0-2.389.48-3.26 1.349z"/>
        <path id="ac" d="M.975 1.478a1.27 1.27 0 0 0 0 1.798 1.276 1.276 0 0 0 1.801 0 2.067 2.067 0 0 1 2.917 0 1.272 1.272 0 0 0 1.802 0 1.27 1.27 0 0 0 0-1.798A4.583 4.583 0 0 0 4.235.129c-1.232 0-2.39.48-3.26 1.349z"/>
        <path id="ae" d="M15.912.658c-2.302.315-3.529 2.106-2.924 3.102.204.4.873 1.572 1.036 1.718.588.53 1.443.757 2.254.743V8.57c-3.145.278-4.878 1.564-6.3 2.622-1.194.89-2.058 1.533-3.56 1.533-1.778 0-3.119-1.111-3.119-2.583 0-.702-.57-1.271-1.274-1.271-.704 0-1.275.57-1.275 1.27 0 2.875 2.49 5.126 5.668 5.126 2.348 0 3.74-1.036 5.084-2.037 1.503-1.119 2.92-2.174 6.05-2.174s4.549 1.055 6.05 2.174c1.346 1.001 2.736 2.037 5.084 2.037 3.179 0 5.668-2.251 5.668-5.125 0-.702-.57-1.271-1.275-1.271-.703 0-1.273.57-1.273 1.27 0 1.473-1.342 2.584-3.12 2.584-1.5 0-2.365-.643-3.56-1.533-1.421-1.058-3.153-2.344-6.3-2.622V6.22c.812.015 1.668-.211 2.255-.742.163-.146.83-1.318 1.036-1.718.604-.996-.623-2.787-2.925-3.102a12.18 12.18 0 0 0-3.28 0z"/>
    </defs>
    <g fill="none" fill-rule="evenodd">
        <g transform="translate(2 2)">
            <circle cx="68.5" cy="71.5" r="68.5" fill="#F0E0C7"/>
            <circle cx="22" cy="22" r="22" fill="#81C06B" stroke="#FFF" stroke-width="4"/>
            <text fill="#FFF" font-family="Podkova-ExtraBold, Podkova" font-size="24" font-weight="600" letter-spacing=".8">
                <tspan x="16" y="32">5</tspan>
            </text>
        </g>
        <g transform="translate(49.632 83.281)">
            <mask id="b" fill="#fff">
                <use xlink:href="#a"/>
            </mask>
            <path fill="#CFAB8E" d="M-4.745 35.41h52.078V-5.188H-4.745z" mask="url(#b)"/>
        </g>
        <g transform="translate(50.737 82.178)">
            <mask id="d" fill="#fff">
                <use xlink:href="#c"/>
            </mask>
            <path fill="#F6DFC3" d="M-4.578 34.693h15.492V-5.332H-4.578z" mask="url(#d)"/>
        </g>
        <g transform="translate(61.79 78.87)">
            <mask id="f" fill="#fff">
                <use xlink:href="#e"/>
            </mask>
            <path fill="#FFFFFE" d="M-4.797 26.356h27.865V-5.44H-4.797z" mask="url(#f)"/>
        </g>
        <g transform="translate(44.105 87.693)">
            <mask id="h" fill="#fff">
                <use xlink:href="#g"/>
            </mask>
            <path fill="#C4A98E" d="M-5.079 25.375h17.651V-4.622h-17.65z" mask="url(#h)"/>
        </g>
        <g transform="translate(90.526 87.693)">
            <mask id="j" fill="#fff">
                <use xlink:href="#i"/>
            </mask>
            <path fill="#9E856F" d="M-5.353 25.375h17.578V-4.622H-5.353z" mask="url(#j)"/>
        </g>
        <g transform="translate(45.21 89.899)">
            <mask id="l" fill="#fff">
                <use xlink:href="#k"/>
            </mask>
            <path fill="#F6DFC3" d="M-4.915 21.146H10.55v-25.88H-4.915z" mask="url(#l)"/>
        </g>
        <g transform="translate(58.474 110.855)">
            <mask id="n" fill="#fff">
                <use xlink:href="#m"/>
            </mask>
            <path fill="#4D372A" d="M-5.288 9.108H8.424V-4.465H-5.288z" mask="url(#n)"/>
        </g>
        <g transform="translate(79.474 110.855)">
            <mask id="p" fill="#fff">
                <use xlink:href="#o"/>
            </mask>
            <path fill="#4D372A" d="M-4.518 9.108h13.71V-4.465h-13.71z" mask="url(#p)"/>
        </g>
        <g transform="translate(43 78.87)">
            <mask id="r" fill="#fff">
                <use xlink:href="#q"/>
            </mask>
            <path fill="#4D372A" d="M-5.243 41.093h66.262V-5.44H-5.243z" mask="url(#r)"/>
        </g>
        <g transform="translate(77.263 103.134)">
            <mask id="t" fill="#fff">
                <use xlink:href="#s"/>
            </mask>
            <path fill="#EFDEC3" d="M-4.754 12.245h14.88v-16.7h-14.88z" mask="url(#t)"/>
        </g>
        <g transform="translate(57.368 104.237)">
            <mask id="v" fill="#fff">
                <use xlink:href="#u"/>
            </mask>
            <path fill="#9E856F" d="M-5.35 13.182h17.322v-18.5H-5.35z" mask="url(#v)"/>
        </g>
        <g transform="translate(44.105 41.37)">
            <mask id="x" fill="#fff">
                <use xlink:href="#w"/>
            </mask>
            <path fill="#CFAB8E" d="M-4.94 43.552h63.446v-48.51H-4.941z" mask="url(#x)"/>
        </g>
        <g transform="translate(44.105 42.472)">
            <mask id="z" fill="#fff">
                <use xlink:href="#y"/>
            </mask>
            <path fill="#EFDEC3" d="M-4.94 18.83h63.446V-5.055H-4.939z" mask="url(#z)"/>
        </g>
        <g transform="translate(58.474 41.37)">
            <mask id="B" fill="#fff">
                <use xlink:href="#A"/>
            </mask>
            <path fill="#FFF" d="M32.369.557a9.892 9.892 0 0 1-2.217 5.49c-2.373 2.918-6.129 4.35-9.871 3.957a83.937 83.937 0 0 0-1.96-.179c-.977 2.316-1.572 4.43-1.572 5.895 0 5.52 4.483 9.994 10.014 9.994 1.554 0 3.718-.454 6.027-1.23a37.22 37.22 0 0 0-.639-5.768c8.686-1.586 7.967-15.829.218-18.159" mask="url(#B)"/>
        </g>
        <g transform="translate(58.474 41.37)">
            <mask id="D" fill="#fff">
                <use xlink:href="#C"/>
            </mask>
            <path fill="#EFDEC3" d="M32.754 26.102c-.043-1.979-.025-3.66-.4-5.626l-.203-1.76c0-.002-1.252.23-1.252.228-.008-.04-.007-.08-.01-.12-.005-.045-.012-.089-.011-.133 0-.04.008-.078.014-.118.004-.043.006-.087.015-.129.008-.038.024-.074.036-.11.012-.042.023-.084.04-.124.015-.035.036-.066.055-.099.02-.039.039-.078.064-.115.02-.03.046-.056.07-.083.027-.036.054-.072.086-.104.026-.026.057-.046.086-.07.035-.028.067-.06.105-.085.033-.02.07-.036.105-.055.039-.02.075-.044.116-.06.039-.016.082-.025.124-.037.04-.012.077-.027.12-.036h.004l1.664.818c4.53-.827 4.757-6.609 4.835-7.99.173-3.117-3.11-7.175-5.805-8.791a11.099 11.099 0 0 1-.537 1.649c1.223 3.283 4.47 8.563 1.058 11.747-1.191 1.113-3.657 1.476-3.543 2.822.153 1.79-.237 4.724-1.119 7.847a23.465 23.465 0 0 0 3.053-.694" mask="url(#D)"/>
        </g>
        <path stroke="#4D372A" stroke-linecap="round" stroke-linejoin="round" stroke-width="2.339" d="M89.191 79.407s2.068-5.6 2.07-10.075c.003-4.474-.636-9.247-.636-9.247s6.317-.926 6.266-8.42c-.055-7.919-6.266-10.292-6.266-10.292s-1.483 8.153-7.237 9.429c-6.31 1.4-11.082-.087-17.265.252-5.81.32-7.061 1.224-7.061 1.224"/>
        <path stroke="#4D372A" stroke-linecap="round" stroke-linejoin="round" stroke-width="2.339" d="M59.521 53.463s-1.494-5.334-7.568-8.838c-3.331-1.923-6.817-1.427-6.817-1.427s-1.293 4.94.534 10.204c1.828 5.263 5.253 6.683 5.253 6.683s-.998 8.231-.327 11.873c.672 3.64 2.638 9.593 2.638 9.593"/>
        <path fill="#9E856F" d="M90.736 82.111H55.223c-.63 0-1.142.57-1.142 1.272v3.734c0 .703.512 1.272 1.142 1.272h35.513c.628 0 1.142-.57 1.142-1.272v-3.734c0-.703-.514-1.272-1.142-1.272"/>
        <g transform="translate(54.053 81.075)">
            <mask id="F" fill="#fff">
                <use xlink:href="#E"/>
            </mask>
            <path fill="#9E856F" d="M-130.421 431.25h589.94v-781.985h-589.94z" mask="url(#F)"/>
        </g>
        <g transform="translate(54.053 81.075)">
            <mask id="H" fill="#fff">
                <use xlink:href="#G"/>
            </mask>
            <path fill="#9E856F" d="M-4.92 12.828h47.695V-4.479H-4.92z" mask="url(#H)"/>
        </g>
        <g transform="translate(49.632 79.972)">
            <mask id="J" fill="#fff">
                <use xlink:href="#I"/>
            </mask>
            <path fill="#AB2430" d="M-4.95 12.499h52.188V-4.81H-4.95z" mask="url(#J)"/>
        </g>
        <g transform="translate(49.632 78.87)">
            <mask id="L" fill="#fff">
                <use xlink:href="#K"/>
            </mask>
            <path fill="#FFFFFE" d="M-4.95 8.595h52.188V-4.978H-4.95z" mask="url(#L)"/>
        </g>
        <g transform="translate(60.684 82.178)">
            <mask id="N" fill="#fff">
                <use xlink:href="#M"/>
            </mask>
            <path fill="#FFFFFE" d="M-5.396 8.173H8.205V-5.4h-13.6z" mask="url(#N)"/>
        </g>
        <g transform="translate(51.842 82.178)">
            <mask id="P" fill="#fff">
                <use xlink:href="#O"/>
            </mask>
            <path fill="#FFFFFE" d="M-5.241 8.173h13.6V-5.4h-13.6z" mask="url(#P)"/>
        </g>
        <g transform="translate(68.421 82.178)">
            <mask id="R" fill="#fff">
                <use xlink:href="#Q"/>
            </mask>
            <path fill="#FFFFFE" d="M-4.444 8.173h13.6V-5.4h-13.6z" mask="url(#R)"/>
        </g>
        <g transform="translate(77.263 82.178)">
            <mask id="T" fill="#fff">
                <use xlink:href="#S"/>
            </mask>
            <path fill="#FFFFFE" d="M-4.6 8.173H9V-5.4H-4.6z" mask="url(#T)"/>
        </g>
        <g transform="translate(86.105 82.178)">
            <mask id="V" fill="#fff">
                <use xlink:href="#U"/>
            </mask>
            <path fill="#FFFFFE" d="M-4.754 8.173h13.6V-5.4h-13.6z" mask="url(#V)"/>
        </g>
        <g transform="translate(55.053 68.943)">
            <mask id="X" fill="#fff">
                <use xlink:href="#W"/>
            </mask>
            <path fill="#F6DFC3" d="M-5.433 13.796h42.54V-5.35h-42.54z" mask="url(#X)"/>
        </g>
        <g transform="translate(66.21 57.914)">
            <mask id="Z" fill="#fff">
                <use xlink:href="#Y"/>
            </mask>
            <path fill="#EFDEC3" d="M-4.916 8.44h19.19V-5.34h-19.19z" mask="url(#Z)"/>
        </g>
        <g>
            <path fill="#CC2128" d="M73.631 69.744v2.666c0 1.035-.84 1.873-1.877 1.873h-2.51a1.875 1.875 0 0 1-1.876-1.873v-2.666"/>
            <path stroke="#4D372A" stroke-linecap="round" stroke-linejoin="round" stroke-width="2.339" d="M73.631 69.744v2.666c0 1.035-.84 1.873-1.877 1.873h-2.51a1.875 1.875 0 0 1-1.876-1.873v-2.666"/>
        </g>
        <g transform="translate(54.053 60.12)">
            <mask id="ab" fill="#fff">
                <use xlink:href="#aa"/>
            </mask>
            <path fill="#4D372A" d="M-4.816 9.163h18.32V-5.385h-18.32z" mask="url(#ab)"/>
        </g>
        <g transform="translate(78.368 60.12)">
            <mask id="ad" fill="#fff">
                <use xlink:href="#ac"/>
            </mask>
            <path fill="#4D372A" d="M-4.925 9.163h18.319V-5.385h-18.32z" mask="url(#ad)"/>
        </g>
        <g transform="translate(52.947 59.017)">
            <mask id="af" fill="#fff">
                <use xlink:href="#ae"/>
            </mask>
            <path fill="#4D372A" d="M-4.776 20.782H39.88V-4.967H-4.776z" mask="url(#af)"/>
        </g>
        <g>
            <path fill="#F6DFC3" d="M99.267 79.835a.784.784 0 0 1-.69-.75c-.05-1.289-.733-2.489-1.887-3.07-1.7-.857-3.778-.052-4.64 1.8-.41.88-.47 1.837-.241 2.691.13.477-.012.978-.361 1.305l-8.66 8.142a1.287 1.287 0 0 1-1.314.271 3.821 3.821 0 0 0-2.674.049c-1.89.736-2.834 2.772-2.111 4.546.492 1.206 1.625 1.981 2.894 2.124.38.044.675.364.69.75.05 1.289.733 2.488 1.887 3.07 1.7.857 3.778.052 4.64-1.8.41-.88.47-1.836.24-2.691-.128-.477.014-.977.362-1.306l8.66-8.14c.35-.33.853-.437 1.314-.272a3.82 3.82 0 0 0 2.674-.049c1.89-.735 2.834-2.771 2.11-4.546-.49-1.206-1.624-1.98-2.893-2.124"/>
            <path stroke="#4D372A" stroke-linecap="round" stroke-linejoin="round" stroke-width="2.339" d="M99.267 79.835a.784.784 0 0 1-.69-.75c-.05-1.289-.733-2.489-1.887-3.07-1.7-.857-3.778-.052-4.64 1.8-.41.88-.47 1.837-.241 2.691.13.477-.012.978-.361 1.305l-8.66 8.142a1.287 1.287 0 0 1-1.314.271 3.821 3.821 0 0 0-2.674.049c-1.89.736-2.834 2.772-2.111 4.546.492 1.206 1.625 1.981 2.894 2.124.38.044.675.364.69.75.05 1.289.733 2.488 1.887 3.07 1.7.857 3.778.052 4.64-1.8.41-.88.47-1.836.24-2.691-.128-.477.014-.977.362-1.306l8.66-8.14c.35-.33.853-.437 1.314-.272a3.82 3.82 0 0 0 2.674-.049c1.89-.735 2.834-2.771 2.11-4.546-.49-1.206-1.624-1.98-2.893-2.124z"/>
            <path fill="#C4A98E" d="M104.232 90.296a4.491 4.491 0 0 0-5.898-2.335 4.475 4.475 0 0 0-1.665 1.245 3.284 3.284 0 0 0-4.163-1.418 3.26 3.26 0 0 0-1.584 1.472 4.67 4.67 0 0 0-.294-.943 4.717 4.717 0 0 0-8.726.183 4.715 4.715 0 0 0-4.652-.527 4.692 4.692 0 0 0-2.493 2.541 3.753 3.753 0 0 0-4.442-1.138 3.737 3.737 0 0 0-1.954 4.917 3.75 3.75 0 0 0 4.927 1.95c.775-.334 26.33.921 28.605-.06a4.474 4.474 0 0 0 2.34-5.887"/>
            <path fill="#F6DFC3" d="M98.276 113.338h-24.08c-1.912 0-2.814-1.135-3.463-5.04-.637-3.821-1.133-9.286-1.133-9.286 0-2.784 2.684-3.392 4.597-3.392h24.079c1.913 0 4.597-.216 4.597 2.568 0 0-.495 6.314-1.133 10.11-.637 3.798-1.55 5.04-3.464 5.04"/>
            <path stroke="#4D372A" stroke-linecap="round" stroke-linejoin="round" stroke-width="2.339" d="M98.276 113.338h-24.08c-1.912 0-2.814-1.135-3.463-5.04-.637-3.821-1.133-9.286-1.133-9.286 0-2.784 2.684-3.392 4.597-3.392h24.079c1.913 0 4.597-.216 4.597 2.568 0 0-.495 6.314-1.133 10.11-.637 3.798-1.55 5.04-3.464 5.04z"/>
            <path fill="#CFAB8E" d="M86.69 113.338H74.196c-1.913 0-2.814-1.135-3.464-5.04-.636-3.821-1.132-9.286-1.132-9.286 0-2.784 2.683-3.392 4.596-3.392h4.587s2.293-1.115 2.293 1.669c0 0 .066 8.006 1.006 11.668.975 3.796 4.608 4.38 4.608 4.38"/>
            <path stroke="#4D372A" stroke-linecap="round" stroke-linejoin="round" stroke-width="2.339" d="M98.276 113.338h-24.08c-1.912 0-2.814-1.135-3.463-5.04-.637-3.821-1.133-9.286-1.133-9.286 0-2.784 2.684-3.392 4.597-3.392h24.079c1.913 0 4.597-.216 4.597 2.568 0 0-.495 6.314-1.133 10.11-.637 3.798-1.55 5.04-3.464 5.04z"/>
            <path fill="#9E856F" d="M101.326 99.817h-30.18a3.808 3.808 0 0 1-3.812-3.804 3.808 3.808 0 0 1 3.813-3.805h30.179a3.808 3.808 0 0 1 3.812 3.805 3.808 3.808 0 0 1-3.812 3.804"/>
            <path stroke="#4D372A" stroke-linecap="round" stroke-linejoin="round" stroke-width="2.339" d="M101.326 99.817h-30.18a3.808 3.808 0 0 1-3.812-3.804 3.808 3.808 0 0 1 3.813-3.805h30.179a3.808 3.808 0 0 1 3.812 3.805 3.808 3.808 0 0 1-3.812 3.804z"/>
        </g>
    </g>
</svg>
