<svg xmlns="http://www.w3.org/2000/svg" xmlns:xlink="http://www.w3.org/1999/xlink" width="139" height="142" viewBox="0 0 139 142">
    <defs>
        <path id="a" d="M44.215 6.16c-2.356 2.918-6.082 4.352-9.796 3.958a74.963 74.963 0 0 0-19.775.524C11.074 5.374 7.586 1.508 1.06 1.943.11 4.566-.819 13.017 6.801 18.831h.004c-1.218 6.443-.743 12.882 1.422 19.32h36.549c2.166-6.438 2.64-12.877 1.423-19.32C54.82 17.244 54.104 3 46.414.67a9.926 9.926 0 0 1-2.199 5.489z"/>
        <path id="c" d="M44.215 6.065c-2.356 2.917-6.082 4.35-9.796 3.955a75.104 75.104 0 0 0-19.775.525c-3.57-5.27-7.058-9.133-13.585-8.698C.676 2.91.294 4.926.483 7.337c.1-1.26.336-2.288.576-2.948 5.786-.386 8.575 3.098 11.62 7.565.73 1.07 2 1.627 3.277 1.439 6.031-.879 12.558-1.455 18.463-.828 3.714.392 7.44-1.04 9.796-3.958a9.94 9.94 0 0 0 2.2-5.488c3.497 1.06 5.551 4.585 5.94 8.263.483-4.462-1.634-9.503-5.94-10.806a9.944 9.944 0 0 1-2.2 5.49z"/>
        <path id="e" d="M24.573 9.547c-3.833.857-7.094.63-10.455.406-2.13-.142-4.297-.285-6.675-.153-5.767.318-7.009 1.222-7.009 1.222l29.9 27.129s2.052-5.6 2.054-10.075c0-4.473-.633-9.245-.633-9.245s6.268-.927 6.219-8.423c-.054-7.916-6.22-10.29-6.22-10.29s-1.47 8.153-7.18 9.43"/>
        <path id="g" d="M24.573 9.547c-3.833.857-7.094.63-10.455.406-2.13-.142-4.297-.285-6.675-.153-5.767.318-7.009 1.222-7.009 1.222l29.9 27.129s2.052-5.6 2.054-10.075c0-4.473-.633-9.245-.633-9.245s6.268-.927 6.219-8.423c-.054-7.916-6.22-10.29-6.22-10.29s-1.47 8.153-7.18 9.43"/>
        <path id="i" d="M5.51 5.07c-2.544 0-4.36-1.735-4.36-3.853L.935 2.989c0 2.119 2.87 5.986 5.413 5.986 3.635 0 5.338-4.212 10.209-4.212 5.042 0 6.574 4.212 10.208 4.212 2.543 0 5.414-3.867 5.414-5.986l-.215-1.772c0 2.118-1.817 3.853-4.36 3.853-4.251 0-4.647-4.21-11.047-4.21S9.762 5.07 5.509 5.07z"/>
        <path id="k" d="M16.026.25c-2.283.314-3.5 2.106-2.902 3.1.204.403.868 1.572 1.028 1.72.584.53 1.433.756 2.238.741v2.35c-3.121.279-4.841 1.564-6.251 2.622-1.186.89-2.043 1.532-3.533 1.532-1.765 0-3.095-1.11-3.095-2.583 0-.701-.566-1.27-1.265-1.27-.7 0-1.264.569-1.264 1.27 0 2.875 2.47 5.126 5.624 5.126 2.33 0 3.71-1.036 5.045-2.037 1.49-1.119 2.896-2.174 6.004-2.174 3.106 0 4.512 1.055 6.002 2.174 1.336 1.001 2.715 2.037 5.044 2.037 3.156 0 5.626-2.251 5.626-5.126 0-.701-.566-1.27-1.265-1.27-.698 0-1.263.569-1.263 1.27 0 1.473-1.332 2.583-3.098 2.583-1.488 0-2.346-.643-3.531-1.532-1.41-1.058-3.13-2.343-6.252-2.621v-2.35c.806.014 1.655-.211 2.238-.743.16-.147.823-1.316 1.028-1.718.6-.995-.62-2.787-2.903-3.1a11.83 11.83 0 0 0-1.626-.11c-.544 0-1.087.034-1.629.11z"/>
        <path id="m" d="M3.086.99C1.532 1.265.553 2.548.456 3.62.981 3.065 1.807 2.6 2.865 2.456c.542-.075 1.084-.11 1.628-.11.543 0 1.086.035 1.627.11 1.06.145 1.885.61 2.41 1.163C8.434 2.548 7.456 1.265 5.9.99a8.174 8.174 0 0 0-2.814 0z"/>
        <path id="o" d="M.821 10.613c0 5.734 3.736 10.383 8.343 10.383 4.606 0 8.34-4.65 8.34-10.383 0-5.736-3.734-10.384-8.34-10.384C4.557.23.82 4.877.82 10.613z"/>
        <path id="q" d="M42.741.64L.805 7.982c3.628 3.48 15.972 9.097 17.988 17.418 1.402 5.785 6.46 7.075 12.49 5.326 13.122-3.805 17.251-3.16 17.566-13.052 0 0 .576-17.055-5.699-17.057-.133 0-.27.007-.409.023"/>
        <path id="s" d="M37.35.047c.623 0 1.133.57 1.133 1.272v3.735c0 .702-.51 1.271-1.133 1.271H2.11c-.626 0-1.133-.569-1.133-1.271V1.319C.977.617 1.484.047 2.11.047h35.24z"/>
        <path id="u" d="M2.11.047h35.24c.623 0 1.133.57 1.133 1.272v3.735c0 .702-.51 1.27-1.133 1.27H2.11c-.626 0-1.133-.568-1.133-1.27V1.319C.977.617 1.484.047 2.11.047z"/>
        <path id="w" d="M2.255.82C1.556.82.99 1.39.99 2.09v3.736c0 .701.566 1.272 1.265 1.272h39.35a1.27 1.27 0 0 0 1.265-1.272V2.09A1.27 1.27 0 0 0 41.605.82H2.255z"/>
        <path id="y" d="M2.255.65C1.556.65.99 1.222.99 1.923v1.272c0-.701.566-1.272 1.265-1.272h39.35c.695 0 1.265.57 1.265 1.272V1.922A1.27 1.27 0 0 0 41.605.651H2.255z"/>
        <path id="A" d="M1.077 1.501c0 .703.566 1.27 1.265 1.27.697 0 1.264-.567 1.264-1.27C3.606.797 3.04.23 2.342.23c-.699 0-1.265.568-1.265 1.272z"/>
        <path id="C" d="M.134 1.501c0 .703.566 1.27 1.264 1.27.698 0 1.264-.567 1.264-1.27C2.662.797 2.096.23 1.398.23.7.23.134.797.134 1.501z"/>
        <path id="E" d="M.925 1.501c0 .703.566 1.27 1.263 1.27.699 0 1.265-.567 1.265-1.27C3.453.797 2.887.23 2.188.23 1.491.23.925.797.925 1.501z"/>
        <path id="G" d="M.77 1.501c0 .703.566 1.27 1.265 1.27.698 0 1.264-.567 1.264-1.27C3.3.797 2.733.23 2.035.23 1.335.23.77.797.77 1.501z"/>
        <path id="I" d="M.617 1.501c0 .703.566 1.27 1.265 1.27.698 0 1.264-.567 1.264-1.27C3.146.797 2.58.23 1.882.23 1.183.23.617.797.617 1.501z"/>
        <path id="K" d="M4.51.377C2.342.377.586 2.144.586 4.324v18.075c0 2.179 1.756 3.945 3.924 3.945h27.957c2.166 0 3.923-1.766 3.923-3.945V4.324c0-2.18-1.757-3.947-3.923-3.947H4.51z"/>
        <path id="M" d="M19.225 3.207C15.84 5.402 8.75 7.997 5.243 6.985 3.213 6.4 1.814 4.83 1.038 3.129A4.806 4.806 0 0 0 .33 4.965c2.105 4.852 4.836 4.917 6.75 4.513a.101.101 0 0 0 .023-.006c4.044-.85 8.353-2.216 12.428-3.91C22.911 2.927 24.306.13 24.306.13c-1.175.695-.708.244-5.08 3.078z"/>
    </defs>
    <g fill="none" fill-rule="evenodd" transform="translate(2 2)">
        <circle cx="68.5" cy="71.5" r="68.5" fill="#F0E0C7"/>
        <g transform="translate(50.355 38.215)">
            <mask id="b" fill="#fff">
                <use xlink:href="#a"/>
            </mask>
            <path fill="#CFAB8E" d="M-5.052 43.667h62.96v-48.51h-62.96z" mask="url(#b)"/>
        </g>
        <g transform="translate(50.355 39.318)">
            <mask id="d" fill="#fff">
                <use xlink:href="#c"/>
            </mask>
            <path fill="#F6DFC3" d="M-5.05 18.944h62.957V-4.939H-5.05z" mask="url(#d)"/>
        </g>
        <g transform="translate(64.613 38.215)">
            <mask id="f" fill="#fff">
                <use xlink:href="#e"/>
            </mask>
            <path fill="#FFF" d="M31.971.671a9.933 9.933 0 0 1-2.2 5.49c-2.354 2.918-6.081 4.35-9.795 3.957a82.669 82.669 0 0 0-1.945-.179c-.97 2.316-1.56 4.43-1.56 5.895 0 5.52 4.45 9.994 9.938 9.994 1.542 0 3.69-.454 5.98-1.23a37.497 37.497 0 0 0-.634-5.768c8.62-1.586 7.906-15.828.216-18.159" mask="url(#f)"/>
        </g>
        <g transform="translate(64.613 38.215)">
            <mask id="h" fill="#fff">
                <use xlink:href="#g"/>
            </mask>
            <path fill="#F6DFC3" d="M32.354 26.216c-.043-1.979-.025-3.66-.397-5.626l-.202-1.76c0-.001-1.243.23-1.243.228-.007-.04-.006-.08-.01-.12-.004-.044-.011-.088-.01-.133 0-.04.008-.078.014-.118.004-.043.005-.087.015-.129.008-.038.023-.073.035-.11.012-.042.023-.084.04-.123.015-.036.036-.067.055-.1.02-.038.038-.078.063-.114.02-.03.046-.057.07-.084.027-.035.053-.072.085-.104.026-.025.057-.046.085-.07.036-.028.067-.059.105-.084.033-.021.07-.037.104-.055.038-.021.074-.045.115-.061.038-.016.081-.024.123-.036.04-.013.077-.028.118-.037h.005l1.651.818c4.496-.827 4.721-6.608 4.798-7.99.172-3.117-3.085-7.175-5.76-8.79a11.16 11.16 0 0 1-.534 1.648c1.215 3.284 4.437 8.563 1.051 11.748-1.182 1.112-3.63 1.475-3.516 2.82.151 1.792-.235 4.725-1.11 7.848.92-.138 1.948-.376 3.03-.693" mask="url(#h)"/>
        </g>
        <g stroke="#533425" stroke-linecap="round" stroke-linejoin="round" stroke-width="2.339">
            <path d="M94.946 76.366s2.052-5.6 2.054-10.074c.002-4.474-.632-9.247-.632-9.247s6.27-.926 6.218-8.42c-.054-7.919-6.218-10.292-6.218-10.292s-1.472 8.153-7.181 9.429c-6.26 1.4-10.997-.087-17.132.252-5.766.319-7.007 1.223-7.007 1.223"/>
            <path d="M65.503 50.423s-1.482-5.334-7.51-8.838c-3.305-1.923-6.765-1.428-6.765-1.428s-1.282 4.942.53 10.205c1.815 5.263 5.214 6.684 5.214 6.684s-.99 8.23-.325 11.872c.667 3.64 2.617 9.594 2.617 9.594"/>
        </g>
        <g transform="translate(60.226 65.789)">
            <mask id="j" fill="#fff">
                <use xlink:href="#i"/>
            </mask>
            <path fill="#F6DFC3" d="M-4.548 14.49h42.212V-4.658H-4.548z" mask="url(#j)"/>
        </g>
        <g transform="translate(59.129 56.965)">
            <mask id="l" fill="#fff">
                <use xlink:href="#k"/>
            </mask>
            <path fill="#533425" d="M-4.502 20.372H39.81V-5.376H-4.502z" mask="url(#l)"/>
        </g>
        <g stroke="#533425" stroke-linecap="round" stroke-linejoin="round" stroke-width="2.806">
            <path d="M89.028 56.544v3.013M65.16 56.544v3.013"/>
        </g>
        <g transform="translate(72.29 54.76)">
            <mask id="n" fill="#fff">
                <use xlink:href="#m"/>
            </mask>
            <path fill="#F6DFC3" d="M-5.028 9.133h19.043v-13.78H-5.028z" mask="url(#n)"/>
        </g>
        <path fill="#CFAB8E" d="M50.062 87.007c3.628 3.48 5.67 7.44 7.687 15.76 1.401 5.786 14.963 7.71 21.11 6.44 14.462-2.991 18.934-2.618 19.249-12.51 0 0 .6-17.787-6.108-17.034"/>
        <g transform="translate(67.903 79.024)">
            <mask id="p" fill="#fff">
                <use xlink:href="#o"/>
            </mask>
            <path fill="#FFFFFE" d="M-4.662 26.51h27.65V-5.285h-27.65z" mask="url(#p)"/>
        </g>
        <g transform="translate(49.258 79.024)">
            <mask id="r" fill="#fff">
                <use xlink:href="#q"/>
            </mask>
            <path fill="#A8866E" d="M8.042 17.353c-.459-.105 1.074-.503 3.325 1.225 6.408 4.917 10.44 6.69 25.683 6.026 8.87-.387 11.8-6.93 11.8-6.93.013 8.51-8.203 12.095-23.284 12.882-6.119.32-7.312-3.104-10.05-3.241-.935-2.269-4.985-3.974-8.047-4.38" mask="url(#r)"/>
        </g>
        <path stroke="#533425" stroke-linecap="round" stroke-linejoin="round" stroke-width="2.339" d="M50.062 87.007c3.628 3.48 15.973 9.096 17.99 17.416 1.401 5.785 6.46 7.077 12.49 5.328 13.121-3.808 17.25-3.162 17.566-13.054 0 0 .6-17.787-6.108-17.034"/>
        <path fill="#A8866E" d="M96.479 79.07h-35.24c-.626 0-1.133.57-1.133 1.272v3.735c0 .703.507 1.272 1.133 1.272h35.24c.623 0 1.133-.57 1.133-1.272v-3.735c0-.702-.51-1.271-1.133-1.271"/>
        <g transform="translate(59.129 79.024)">
            <mask id="t" fill="#fff">
                <use xlink:href="#s"/>
            </mask>
            <path fill="#A8866E" d="M-128.47 430.262h585.408v-781.986H-128.47z" mask="url(#t)"/>
        </g>
        <g transform="translate(59.129 79.024)">
            <mask id="v" fill="#fff">
                <use xlink:href="#u"/>
            </mask>
            <path fill="#A8866E" d="M-3.934 11.84h47.328V-5.467H-3.934z" mask="url(#v)"/>
        </g>
        <g transform="translate(54.742 76.818)">
            <mask id="x" fill="#fff">
                <use xlink:href="#w"/>
            </mask>
            <path fill="#C81F2D" d="M-4.493 12.613h52.846V-4.694H-4.493z" mask="url(#x)"/>
        </g>
        <g transform="translate(54.742 75.715)">
            <mask id="z" fill="#fff">
                <use xlink:href="#y"/>
            </mask>
            <path fill="#FFFFFE" d="M-4.493 8.71h52.846V-4.863H-4.493z" mask="url(#z)"/>
        </g>
        <g transform="translate(65.71 79.024)">
            <mask id="B" fill="#fff">
                <use xlink:href="#A"/>
            </mask>
            <path fill="#FFFFFE" d="M-4.407 8.287H9.09V-5.284H-4.407z" mask="url(#B)"/>
        </g>
        <g transform="translate(58.032 79.024)">
            <mask id="D" fill="#fff">
                <use xlink:href="#C"/>
            </mask>
            <path fill="#FFFFFE" d="M-5.35 8.287H8.146V-5.284H-5.35z" mask="url(#D)"/>
        </g>
        <g transform="translate(74.484 79.024)">
            <mask id="F" fill="#fff">
                <use xlink:href="#E"/>
            </mask>
            <path fill="#FFFFFE" d="M-4.56 8.287H8.938V-5.284H-4.56z" mask="url(#F)"/>
        </g>
        <g transform="translate(83.258 79.024)">
            <mask id="H" fill="#fff">
                <use xlink:href="#G"/>
            </mask>
            <path fill="#FFFFFE" d="M-4.714 8.287H8.783V-5.284H-4.714z" mask="url(#H)"/>
        </g>
        <g transform="translate(92.032 79.024)">
            <mask id="J" fill="#fff">
                <use xlink:href="#I"/>
            </mask>
            <path fill="#FFFFFE" d="M-4.866 8.287H8.629V-5.284H-4.866z" mask="url(#J)"/>
        </g>
        <path fill="#CFAB8E" d="M52.818 94.006c5.786-4.322 20.294 7 11.827 15.702-3.79 3.898-8.9 1.511-11.582-2.296-4.182-5.936-5.152-9.741-.245-13.406"/>
        <path fill="#F6DFC3" d="M60.064 107.162c6.574 1.446 6.741-5.565 5.751-1.293-1.856 8.01-10.816 5.338-13.401.7-1.717-3.081-2.912-8.27-2.912-8.27s3.823 7.38 10.562 8.863"/>
        <path stroke="#533425" stroke-linecap="round" stroke-linejoin="round" stroke-width="2.339" d="M52.818 94.006c5.786-4.322 20.294 7 11.827 15.702-3.79 3.898-8.9 1.511-11.582-2.296-4.182-5.936-5.152-9.741-.245-13.406z"/>
        <path fill="#CFAB8E" d="M84.939 98.023c3.93 6.075-8.203 19.936-16.317 10.9-3.634-4.047-.949-9.026 2.996-11.484 6.15-3.83 9.986-4.568 13.32.584"/>
        <path stroke="#533425" stroke-linecap="round" stroke-linejoin="round" stroke-width="2.339" d="M84.939 98.023c3.93 6.075-8.203 19.936-16.317 10.9-3.634-4.047-.949-9.026 2.996-11.484 6.15-3.83 9.986-4.568 13.32.584z"/>
        <path fill="#F6DFC3" d="M67.466 97.647H39.51c-2.168 0-3.925-1.767-3.925-3.945V75.627c0-2.179 1.757-3.945 3.925-3.945h27.956c2.168 0 3.924 1.766 3.924 3.945v18.075c0 2.178-1.756 3.945-3.924 3.945"/>
        <g transform="translate(35 71.303)">
            <mask id="L" fill="#fff">
                <use xlink:href="#K"/>
            </mask>
            <path fill="#CFAB8E" d="M-6.814-3.462h18.227s-5.16 16.203 2.3 23.705c7.462 7.502 15.038 9.614 15.038 9.614H-6.814v-33.32z" mask="url(#L)"/>
        </g>
        <g>
            <path fill="#EE1B24" d="M58.778 84.654c.005 2.938-2.358 5.323-5.28 5.33-2.921.006-5.294-2.371-5.3-5.31-.006-2.937 2.358-5.323 5.279-5.329 2.922-.007 5.295 2.37 5.3 5.309"/>
            <path stroke="#533425" stroke-linecap="round" stroke-linejoin="round" stroke-width="2.339" d="M67.466 97.647H39.51c-2.168 0-3.925-1.767-3.925-3.945V75.627c0-2.179 1.757-3.945 3.925-3.945h27.956c2.168 0 3.924 1.766 3.924 3.945v18.075c0 2.178-1.756 3.945-3.924 3.945z"/>
            <path fill="#CFAB8E" d="M69.9 102.62H37.075c-.821 0-1.488-.67-1.488-1.498v-2.269c0-.827.667-1.498 1.488-1.498h32.827c.822 0 1.49.671 1.49 1.498v2.269c0 .827-.668 1.498-1.49 1.498"/>
            <path stroke="#533425" stroke-linecap="round" stroke-linejoin="round" stroke-width="2.339" d="M69.9 102.62H37.075c-.821 0-1.488-.67-1.488-1.498v-2.269c0-.827.667-1.498 1.488-1.498h32.827c.822 0 1.49.671 1.49 1.498v2.269c0 .827-.668 1.498-1.49 1.498zM40.777 97.355v5.265M66.258 97.355v5.265"/>
            <path fill="#CFAB8E" d="M85.621 86.798c-3.203 4.03-7.541 5.265-11.103 5.213-5.162-.077-7.041 6.057-3.22 8.4 3.085 1.893 9.358.943 14.513-1.898 5.365-2.958 7.495-7.227 7.495-7.227"/>
        </g>
        <g transform="translate(69 91.156)">
            <mask id="N" fill="#fff">
                <use xlink:href="#M"/>
            </mask>
            <path fill="#A8866E" d="M-8.41-1.84l7.68 20.877L39.356 4.125l-7.679-20.878z" mask="url(#N)"/>
        </g>
        <path stroke="#533425" stroke-linecap="round" stroke-linejoin="round" stroke-width="2.339" d="M85.621 86.798c-3.203 4.03-7.541 5.265-11.103 5.213-5.162-.077-7.041 6.057-3.22 8.4 3.085 1.893 9.358.943 14.513-1.898 5.365-2.958 7.495-7.227 7.495-7.227"/>
        <circle cx="22" cy="22" r="22" fill="#81C06B" stroke="#FFF" stroke-width="4"/>
        <text fill="#FFF" font-family="Podkova-ExtraBold, Podkova" font-size="24" font-weight="600" letter-spacing=".8">
            <tspan x="14" y="32">6</tspan>
        </text>
    </g>
</svg>
