<svg xmlns="http://www.w3.org/2000/svg" width="108" height="108" viewBox="0 0 108 108">
    <g fill="none" fill-rule="evenodd">
        <circle cx="54" cy="54" r="54" fill="#EFDEC3"/>
        <path fill="#81C06B" d="M24.788 35.24c4.768 0 8.633 3.828 8.633 8.549 0 4.72-3.865 8.548-8.633 8.548-4.767 0-8.632-3.827-8.632-8.548s3.865-8.548 8.632-8.548"/>
        <path fill="#F2AF6F" d="M24.788 40.125c2.044 0 3.7 1.64 3.7 3.664 0 2.023-1.656 3.663-3.7 3.663-2.043 0-3.7-1.64-3.7-3.663 0-2.024 1.657-3.664 3.7-3.664"/>
        <path fill="#D1CFC4" d="M24.788 40.125c2.044 0 3.7 1.64 3.7 3.664 0 2.023-1.656 3.663-3.7 3.663-2.043 0-3.7-1.64-3.7-3.663 0-2.024 1.657-3.664 3.7-3.664"/>
        <path fill="#81C06B" d="M82.131 45.62v1.832c0 5.723-4.702 10.38-10.482 10.38H56.851c-5.78 0-10.482-4.657-10.482-10.38V45.62h-3.7v1.832c0 7.743 6.362 14.043 14.182 14.043h5.55v6.716H66.1v-6.716h5.55c7.819 0 14.18-6.3 14.18-14.043V45.62h-3.699"/>
        <path fill="#7E8172" d="M56.234 21.808h-3.083v-3.663h3.083c1.022 0 1.85.82 1.85 1.831a1.841 1.841 0 0 1-1.85 1.832M72.266 21.808h3.083v-3.663h-3.083a1.84 1.84 0 0 0-1.85 1.831 1.84 1.84 0 0 0 1.85 1.832"/>
        <path fill="#4D372A" d="M17.312 43.789c0-4.082 3.354-7.403 7.476-7.403 4.123 0 7.476 3.32 7.476 7.403 0 4.082-3.353 7.403-7.476 7.403-4.122 0-7.476-3.321-7.476-7.403zm6.32 17.096a1.15 1.15 0 0 0 1.156 1.144 1.15 1.15 0 0 0 1.156-1.144v-7.473c4.855-.569 8.633-4.666 8.633-9.623 0-5.345-4.391-9.693-9.789-9.693-5.397 0-9.788 4.348-9.788 9.693 0 4.957 3.778 9.054 8.632 9.623v7.473z"/>
        <path fill="#4D372A" d="M22.245 43.789c0-1.389 1.141-2.519 2.543-2.519 1.403 0 2.544 1.13 2.544 2.519 0 1.388-1.141 2.518-2.544 2.518-1.402 0-2.543-1.13-2.543-2.518zm7.399 0c0-2.652-2.178-4.809-4.856-4.809-2.677 0-4.855 2.157-4.855 4.809 0 2.65 2.178 4.808 4.855 4.808 2.678 0 4.856-2.157 4.856-4.808zM84.675 47.452c0 7.112-5.844 12.898-13.026 12.898H66.1a1.15 1.15 0 0 0-1.155 1.145v5.572h-1.388v-5.572A1.15 1.15 0 0 0 62.4 60.35h-5.55c-7.181 0-13.024-5.786-13.024-12.898v-.687h1.387v.687c0 6.355 5.22 11.524 11.638 11.524h14.798c6.417 0 11.638-5.17 11.638-11.524v-.687h1.388v.687zM54.308 19.29h1.926c.383 0 .694.308.694.686a.691.691 0 0 1-.694.687h-1.926V19.29zm19.884 1.373h-1.926a.691.691 0 0 1-.694-.687c0-.378.311-.686.694-.686h1.926v1.373zm11.639 23.813h-.694V24.86c0-3.325-2.731-6.03-6.089-6.03h-2.543v-.686A1.15 1.15 0 0 0 75.349 17h-3.083c-1.658 0-3.006 1.335-3.006 2.976 0 1.642 1.348 2.977 3.006 2.977h3.083a1.15 1.15 0 0 0 1.156-1.145v-.687h2.543c2.083 0 3.777 1.678 3.777 3.74v19.614h-.694a1.15 1.15 0 0 0-1.156 1.145v1.832c0 5.092-4.184 9.235-9.326 9.235H56.851c-5.142 0-9.326-4.143-9.326-9.235V45.62a1.15 1.15 0 0 0-1.156-1.145h-.694V24.861c0-2.062 1.695-3.74 3.777-3.74h2.543v.687a1.15 1.15 0 0 0 1.156 1.145h3.083c1.658 0 3.006-1.335 3.006-2.977 0-1.64-1.348-2.976-3.006-2.976h-3.083a1.15 1.15 0 0 0-1.156 1.145v.687h-2.543c-3.357 0-6.089 2.704-6.089 6.03v19.613h-.694a1.15 1.15 0 0 0-1.156 1.145v1.832c0 8.375 6.88 15.188 15.338 15.188h4.393v5.571a1.15 1.15 0 0 0 1.156 1.145h.694v6.182c0 9.469-7.78 17.172-17.342 17.172h-2.466c-9.562 0-17.342-7.703-17.342-17.172v-9.107a1.15 1.15 0 0 0-1.156-1.145 1.15 1.15 0 0 0-1.156 1.145v9.107C23.632 86.27 32.45 95 43.286 95h2.466c10.838 0 19.654-8.73 19.654-19.462v-6.182h.694a1.15 1.15 0 0 0 1.156-1.145V62.64h4.393c8.457 0 15.338-6.813 15.338-15.188V45.62a1.15 1.15 0 0 0-1.156-1.145z"/>
        <g fill="#81C06B" stroke="#4D372A" stroke-width="2" transform="translate(50 27)">
            <path fill-rule="nonzero" d="M20.164 13.133l3.708 5.548c1.015 1.52.887 3.54-.317 4.974-1.204 1.434-3.198 1.942-4.909 1.251-2.889-1.166-6.168-1.07-9.04.263-1.705.79-3.704.399-4.925-.965-1.22-1.363-1.372-3.375-.375-4.953l3.64-5.763a7.481 7.481 0 0 1 6.089-3.475c2.472-.072 4.783 1.104 6.13 3.12z"/>
            <circle cx="8" cy="4" r="4"/>
            <circle cx="20" cy="4" r="4"/>
            <circle cx="25.5" cy="11.5" r="2.5"/>
            <circle cx="2.5" cy="11.5" r="2.5"/>
        </g>
    </g>
</svg>
