<svg xmlns="http://www.w3.org/2000/svg" xmlns:xlink="http://www.w3.org/1999/xlink" width="108" height="108" viewBox="0 0 108 108">
    <defs>
        <path id="a" d="M49.8 6.784c-2.643 3.275-6.827 4.883-10.995 4.44a84.249 84.249 0 0 0-22.2.589C12.6 5.9 8.682 1.563 1.355 2.052.292 4.995-.751 14.477 7.803 21h.004c-1.367 7.23-.834 14.455 1.597 21.68H50.43c2.431-7.225 2.963-14.45 1.597-21.68 9.676-1.78 8.874-17.761.242-20.376a11.143 11.143 0 0 1-2.47 6.16z"/>
        <path id="c" d="M49.8 6.677c-2.643 3.273-6.827 4.882-10.995 4.439a84.249 84.249 0 0 0-22.2.59C12.6 5.791 8.682 1.455 1.355 1.943.926 3.136.498 5.4.71 8.106c.113-1.416.378-2.569.647-3.31 6.494-.432 9.626 3.477 13.044 8.488a3.786 3.786 0 0 0 3.678 1.617c6.771-.988 14.098-1.634 20.727-.931 4.168.442 8.352-1.166 10.995-4.44a11.143 11.143 0 0 0 2.47-6.159c3.926 1.19 6.232 5.145 6.67 9.272.541-5.007-1.836-10.662-6.67-12.126a11.143 11.143 0 0 1-2.47 6.16z"/>
        <path id="e" d="M27.752 10.584c-4.304.963-7.966.71-11.74.455-2.389-.158-4.822-.319-7.49-.172-6.473.36-7.867 1.373-7.867 1.373l33.562 30.44s2.304-6.283 2.306-11.303C36.526 26.356 35.814 21 35.814 21s7.036-1.04 6.98-9.45c-.06-8.884-6.98-11.547-6.98-11.547s-1.652 9.15-8.062 10.58"/>
        <path id="g" d="M27.752 10.584c-4.304.963-7.966.71-11.74.455-2.389-.158-4.822-.319-7.49-.172-6.473.36-7.867 1.373-7.867 1.373l33.562 30.44s2.304-6.283 2.306-11.303C36.526 26.356 35.814 21 35.814 21s7.036-1.04 6.98-9.45c-.06-8.884-6.98-11.547-6.98-11.547s-1.652 9.15-8.062 10.58"/>
        <path id="i" d="M40.863 1.162c.7 0 1.272.639 1.272 1.427v4.19c0 .789-.572 1.427-1.272 1.427H1.303c-.7 0-1.271-.638-1.271-1.427V2.59c0-.788.57-1.427 1.272-1.427h39.56z"/>
        <path id="k" d="M1.304 1.162h39.56c.699 0 1.27.639 1.27 1.427v4.19c0 .789-.571 1.427-1.27 1.427H1.303c-.702 0-1.27-.638-1.27-1.427V2.59c0-.788.568-1.427 1.27-1.427z"/>
        <path id="m" d="M1.91.792C1.142.792.52 1.431.52 2.22v4.19c0 .789.621 1.427 1.39 1.427h43.287c.763 0 1.39-.638 1.39-1.427V2.22c0-.788-.627-1.427-1.39-1.427H1.911z"/>
        <path id="o" d="M1.91.603C1.142.603.52 1.24.52 2.03v1.427c0-.789.621-1.427 1.39-1.427h43.287c.763 0 1.39.638 1.39 1.427V2.03c0-.789-.627-1.427-1.39-1.427H1.911z"/>
        <path id="q" d="M.144 1.556c0 .788.637 1.427 1.42 1.427.784 0 1.42-.639 1.42-1.427 0-.789-.636-1.427-1.42-1.427-.783 0-1.42.638-1.42 1.427z"/>
        <path id="s" d="M.316 1.556c0 .788.636 1.427 1.42 1.427.784 0 1.418-.639 1.418-1.427C3.154.767 2.52.129 1.736.129.952.129.316.767.316 1.556z"/>
        <path id="u" d="M1.205 1.556c0 .788.634 1.427 1.419 1.427.784 0 1.42-.639 1.42-1.427 0-.789-.636-1.427-1.42-1.427-.785 0-1.419.638-1.419 1.427z"/>
        <path id="w" d="M1.03 1.556c0 .788.636 1.427 1.42 1.427.786 0 1.42-.639 1.42-1.427C3.87.767 3.236.129 2.45.129c-.784 0-1.42.638-1.42 1.427z"/>
        <path id="y" d="M.86 1.556c0 .788.636 1.427 1.42 1.427.782 0 1.418-.639 1.418-1.427C3.698.767 3.062.129 2.28.129 1.496.129.86.767.86 1.556z"/>
        <path id="A" d="M6.352 4.91c-2.855 0-4.896-1.946-4.896-4.323l-.24 1.988c0 2.378 3.224 6.717 6.079 6.717 4.079 0 5.992-4.727 11.458-4.727 5.662 0 7.38 4.727 11.46 4.727 2.856 0 6.079-4.34 6.079-6.717L36.05.587c0 2.377-2.04 4.324-4.895 4.324-4.772 0-5.218-4.727-12.402-4.727-7.184 0-7.627 4.727-12.401 4.727z"/>
        <path id="C" d="M3.632.333C1.886.64.788 2.079.678 3.283c.59-.622 1.517-1.143 2.705-1.307a13.502 13.502 0 0 1 3.654 0c1.189.164 2.117.685 2.705 1.306C9.634 2.08 8.535.64 6.792.332A9.063 9.063 0 0 0 5.21.197c-.528 0-1.055.044-1.578.137z"/>
        <path id="E" d="M1.207 1.658a1.432 1.432 0 0 0 0 2.018 1.414 1.414 0 0 0 2.006 0 2.292 2.292 0 0 1 3.25 0 1.41 1.41 0 0 0 2.006 0 1.43 1.43 0 0 0 0-2.018A5.087 5.087 0 0 0 4.84.145a5.091 5.091 0 0 0-3.632 1.513z"/>
        <path id="G" d="M1.086 1.658a1.432 1.432 0 0 0 0 2.018 1.414 1.414 0 0 0 2.007 0 2.29 2.29 0 0 1 3.249 0 1.412 1.412 0 0 0 2.007 0 1.432 1.432 0 0 0 0-2.018A5.087 5.087 0 0 0 4.718.145a5.087 5.087 0 0 0-3.632 1.513z"/>
        <path id="I" d="M17.725.739c-2.564.353-3.93 2.362-3.257 3.48.227.45.972 1.763 1.153 1.928.655.595 1.608.85 2.512.833v2.636c-3.504.312-5.435 1.755-7.018 2.942-1.33.999-2.292 1.72-3.965 1.72-1.981 0-3.475-1.246-3.475-2.898 0-.788-.635-1.426-1.42-1.426-.784 0-1.419.638-1.419 1.426 0 3.225 2.774 5.75 6.314 5.75 2.615 0 4.165-1.161 5.663-2.285 1.673-1.255 3.252-2.44 6.74-2.44 3.486 0 5.066 1.185 6.74 2.44 1.497 1.124 3.046 2.286 5.661 2.286 3.541 0 6.314-2.526 6.314-5.751 0-.788-.635-1.426-1.42-1.426-.783 0-1.418.638-1.418 1.426 0 1.652-1.495 2.898-3.476 2.898-1.672 0-2.634-.721-3.965-1.72-1.584-1.187-3.513-2.63-7.018-2.942V6.98c.905.016 1.858-.238 2.511-.833.183-.165.926-1.479 1.155-1.928.673-1.118-.694-3.127-3.259-3.48a13.47 13.47 0 0 0-3.653 0z"/>
    </defs>
    <g fill="none" fill-rule="evenodd">
        <circle cx="54" cy="54" r="54" fill="#EFDEC3"/>
        <g transform="translate(24.534 35.415)">
            <mask id="b" fill="#fff">
                <use xlink:href="#a"/>
            </mask>
            <path fill="#CFAB8E" d="M-5.503 48.869h70.675V-5.563H-5.503z" mask="url(#b)"/>
        </g>
        <g transform="translate(24.534 36.652)">
            <mask id="d" fill="#fff">
                <use xlink:href="#c"/>
            </mask>
            <path fill="#F6DFC3" d="M-5.502 21.128h70.674V-5.67H-5.502z" mask="url(#d)"/>
        </g>
        <g transform="translate(40.539 35.415)">
            <mask id="f" fill="#fff">
                <use xlink:href="#e"/>
            </mask>
            <path fill="#FFF" d="M36.057.625a11.143 11.143 0 0 1-2.47 6.16c-2.643 3.274-6.827 4.882-10.996 4.44a92.839 92.839 0 0 0-2.183-.2c-1.088 2.598-1.75 4.97-1.75 6.614 0 6.193 4.993 11.214 11.154 11.214 1.731 0 4.142-.51 6.714-1.38a42.058 42.058 0 0 0-.712-6.472C45.49 19.22 44.69 3.24 36.057.625" mask="url(#f)"/>
        </g>
        <g transform="translate(40.539 35.415)">
            <mask id="h" fill="#fff">
                <use xlink:href="#g"/>
            </mask>
            <path fill="#F6DFC3" d="M36.486 29.288c-.048-2.22-.028-4.106-.445-6.313L35.814 21c0-.001-1.395.259-1.395.256-.009-.044-.007-.09-.011-.134-.005-.05-.014-.1-.012-.149 0-.045.01-.088.016-.132.005-.049.006-.098.017-.145.008-.044.026-.083.04-.124.013-.047.025-.094.044-.139.017-.04.04-.074.061-.111.024-.043.043-.088.072-.129.022-.033.051-.063.077-.094.03-.04.06-.08.096-.116.03-.029.064-.052.096-.078.04-.032.075-.067.117-.095.037-.024.079-.041.117-.062.043-.024.084-.05.13-.068.042-.018.09-.028.137-.041.045-.014.086-.031.133-.041h.005c.003 0 1.853.918 1.854.918 5.047-.928 5.3-7.415 5.386-8.965.193-3.498-3.464-8.051-6.467-9.865a12.518 12.518 0 0 1-.598 1.85c1.363 3.685 4.98 9.61 1.18 13.182-1.328 1.249-4.075 1.656-3.948 3.166.17 2.01-.263 5.3-1.246 8.805 1.032-.154 2.187-.422 3.4-.778" mask="url(#h)"/>
        </g>
        <path stroke="#533425" stroke-linecap="round" stroke-linejoin="round" stroke-width="2.619" d="M74.756 78.095s2.304-6.283 2.306-11.304c.003-5.02-.709-10.376-.709-10.376s7.038-1.04 6.98-9.449c-.06-8.884-6.98-11.548-6.98-11.548s-1.652 9.149-8.062 10.58c-7.027 1.57-12.344-.097-19.23.284-6.473.357-7.867 1.372-7.867 1.372M41.706 50.447s-1.665-5.708-8.43-9.457c-3.711-2.057-7.594-1.527-7.594-1.527s-1.44 5.287.594 10.919c2.037 5.631 5.852 7.15 5.852 7.15s-1.112 8.808-.364 12.705c.748 3.895 2.939 10.265 2.939 10.265"/>
        <path fill="#A8866E" d="M76.477 81.13H36.918c-.702 0-1.272.638-1.272 1.427v4.19c0 .789.57 1.427 1.272 1.427h39.56c.699 0 1.271-.638 1.271-1.427v-4.19c0-.789-.572-1.427-1.272-1.427"/>
        <g transform="translate(35.614 79.968)">
            <mask id="j" fill="#fff">
                <use xlink:href="#i"/>
            </mask>
            <path fill="#A8866E" d="M-145.28 483.896h657.153v-877.448H-145.28z" mask="url(#j)"/>
        </g>
        <g transform="translate(35.614 79.968)">
            <mask id="l" fill="#fff">
                <use xlink:href="#k"/>
            </mask>
            <path fill="#A8866E" d="M-5.48 14.394h53.128v-19.42H-5.48z" mask="url(#l)"/>
        </g>
        <g transform="translate(30.69 78.73)">
            <mask id="n" fill="#fff">
                <use xlink:href="#m"/>
            </mask>
            <path fill="#C81F2D" d="M-5.513 14.024H52.62v-19.42H-5.513z" mask="url(#n)"/>
        </g>
        <g transform="translate(30.69 77.493)">
            <mask id="p" fill="#fff">
                <use xlink:href="#o"/>
            </mask>
            <path fill="#FFFFFE" d="M-5.513 9.645H52.62v-15.23H-5.513z" mask="url(#p)"/>
        </g>
        <g transform="translate(43.001 81.205)">
            <mask id="r" fill="#fff">
                <use xlink:href="#q"/>
            </mask>
            <path fill="#FFFFFE" d="M-6.01 9.17H9.14V-6.06H-6.01z" mask="url(#r)"/>
        </g>
        <g transform="translate(33.152 81.205)">
            <mask id="t" fill="#fff">
                <use xlink:href="#s"/>
            </mask>
            <path fill="#FFFFFE" d="M-5.838 9.17h15.15V-6.06h-15.15z" mask="url(#t)"/>
        </g>
        <g transform="translate(51.62 81.205)">
            <mask id="v" fill="#fff">
                <use xlink:href="#u"/>
            </mask>
            <path fill="#FFFFFE" d="M-4.95 9.17H10.2V-6.06H-4.95z" mask="url(#v)"/>
        </g>
        <g transform="translate(61.47 81.205)">
            <mask id="x" fill="#fff">
                <use xlink:href="#w"/>
            </mask>
            <path fill="#FFFFFE" d="M-5.124 9.17h15.15V-6.06h-15.15z" mask="url(#x)"/>
        </g>
        <g transform="translate(71.319 81.205)">
            <mask id="z" fill="#fff">
                <use xlink:href="#y"/>
            </mask>
            <path fill="#FFFFFE" d="M-5.295 9.17h15.15V-6.06h-15.15z" mask="url(#z)"/>
        </g>
        <g transform="translate(35.614 66.354)">
            <mask id="B" fill="#fff">
                <use xlink:href="#A"/>
            </mask>
            <path fill="#F6DFC3" d="M-4.938 15.48h47.386V-6.004H-4.938z" mask="url(#B)"/>
        </g>
        <g transform="translate(49.157 53.978)">
            <mask id="D" fill="#fff">
                <use xlink:href="#C"/>
            </mask>
            <path fill="#F6DFC3" d="M-5.476 9.47H15.9V-5.992H-5.476z" mask="url(#D)"/>
        </g>
        <g>
            <path fill="#EE1B24" d="M57.423 67.253v2.992c0 1.16-.935 2.101-2.09 2.101h-2.796c-1.154 0-2.09-.94-2.09-2.101v-2.992"/>
            <path stroke="#533425" stroke-linecap="round" stroke-linejoin="round" stroke-width="2.619" d="M57.423 67.253v2.992c0 1.16-.935 2.101-2.09 2.101h-2.796c-1.154 0-2.09-.94-2.09-2.101v-2.992"/>
        </g>
        <g transform="translate(35.614 56.454)">
            <mask id="F" fill="#fff">
                <use xlink:href="#E"/>
            </mask>
            <path fill="#533425" d="M-5.364 10.282h20.407V-6.042H-5.364z" mask="url(#F)"/>
        </g>
        <g transform="translate(62.7 56.454)">
            <mask id="H" fill="#fff">
                <use xlink:href="#G"/>
            </mask>
            <path fill="#533425" d="M-5.486 10.282H14.92V-6.042H-5.486z" mask="url(#H)"/>
        </g>
        <g transform="translate(34.383 55.216)">
            <mask id="J" fill="#fff">
                <use xlink:href="#I"/>
            </mask>
            <path fill="#533425" d="M-5.32 23.319h49.744V-5.573H-5.32z" mask="url(#J)"/>
        </g>
        <g>
            <path fill="#6E6370" d="M25.973 52.987h-6.446c-.123 0-.222-1.01-.222-2.255v-2.254c0-1.245.1-2.254.222-2.254h6.446c.123 0 .222 1.009.222 2.254v2.254c0 1.245-.1 2.255-.222 2.255zM88.973 52.987h-6.446c-.123 0-.222-1.01-.222-2.255v-2.254c0-1.245.1-2.254.222-2.254h6.446c.123 0 .222 1.009.222 2.254v2.254c0 1.245-.1 2.255-.222 2.255z"/>
            <path fill="#81C06B" d="M80.068 66.514V50.732a4.509 4.509 0 0 0-4.51-4.509H32.723a4.509 4.509 0 0 0-4.51 4.51v15.781H25.96a2.255 2.255 0 0 1-2.254-2.255V49.605c0-15.278 11.255-27.925 25.926-30.104h9.019c14.67 2.179 25.926 14.826 25.926 30.104V64.26a2.255 2.255 0 0 1-2.254 2.255h-2.254z"/>
            <path fill="#9B9B9B" d="M34.036 46.223h-1.313a4.509 4.509 0 0 0-4.51 4.51v15.781H25.96a2.255 2.255 0 0 1-2.254-2.255V49.605c0-15.278 11.255-27.925 25.926-30.104h9.019l.063.009c.168.026.333.059.5.087-13.302 2.233-23.68 13.089-25.177 26.626z" opacity=".528"/>
            <path fill="#81C06B" d="M56.395 16.914h-4.51a2.255 2.255 0 0 0-2.253 2.255v22.545h9.017V19.17a2.254 2.254 0 0 0-2.254-2.255z"/>
            <path fill="#5C515E" d="M56.519 86.805h-4.757a2.255 2.255 0 0 1 0-4.509h4.757a2.254 2.254 0 1 1 0 4.51z"/>
            <path fill="#A3CCFF" d="M75.558 46.223H32.723a4.509 4.509 0 0 0-4.51 4.51v15.781h7.892v-12.4a4.508 4.508 0 0 1 4.508-4.509h34.945a4.508 4.508 0 0 1 4.51 4.51v-3.383a4.509 4.509 0 0 0-4.51-4.509z" opacity=".298"/>
            <path fill="#4D372A" d="M86.831 45.168h-1.514a31.492 31.492 0 0 0-25.663-26.571 3.314 3.314 0 0 0-3.26-2.738h-4.508a3.314 3.314 0 0 0-3.259 2.738 31.492 31.492 0 0 0-25.663 26.572H21.45a3.313 3.313 0 0 0-3.31 3.31v2.253a3.313 3.313 0 0 0 3.31 3.31h1.2v10.217a3.314 3.314 0 0 0 3.309 3.31h4.714a21.403 21.403 0 0 0 5.995 11.784 21.402 21.402 0 0 0 11.886 6.012 3.315 3.315 0 0 0 3.208 2.495h4.757a3.315 3.315 0 0 0 3.207-2.495 21.397 21.397 0 0 0 11.887-6.013 21.402 21.402 0 0 0 5.995-11.783h4.714a3.313 3.313 0 0 0 3.31-3.31V54.041h1.199a3.313 3.313 0 0 0 3.31-3.309v-2.254a3.313 3.313 0 0 0-3.31-3.31zm-34.945-27.2h4.509a1.2 1.2 0 0 1 1.2 1.2V40.66h-6.909V19.17c0-.662.538-1.2 1.2-1.2zM31.962 30.334a29.393 29.393 0 0 1 16.614-9.583v19.91H26.154a29.334 29.334 0 0 1 5.808-10.327zM21.45 51.932c-.662 0-1.2-.539-1.2-1.2v-2.254a1.2 1.2 0 0 1 1.2-1.2h1.287a31.476 31.476 0 0 0-.088 2.327v2.327h-1.2zM56.519 85.75h-4.757a1.2 1.2 0 0 1 0-2.4h4.757c.662 0 1.2.539 1.2 1.2 0 .662-.538 1.2-1.2 1.2zm13.603-7.89a19.287 19.287 0 0 1-10.558 5.395 3.314 3.314 0 0 0-3.045-2.014h-4.757c-1.365 0-2.54.83-3.045 2.014a19.29 19.29 0 0 1-10.557-5.394c-2.8-2.8-4.674-6.419-5.35-10.292h42.66a19.29 19.29 0 0 1-5.348 10.292zm13.4-13.6a1.2 1.2 0 0 1-1.2 1.2h-1.2V50.731a5.57 5.57 0 0 0-5.563-5.563H32.722a5.57 5.57 0 0 0-5.563 5.563v9.018a1.055 1.055 0 0 0 2.11 0v-9.018a3.457 3.457 0 0 1 3.453-3.454h42.836a3.458 3.458 0 0 1 3.455 3.454V65.46H29.268v-1.2a1.055 1.055 0 0 0-2.11 0v1.2H25.96a1.2 1.2 0 0 1-1.2-1.199V49.605c0-2.32.276-4.613.807-6.836h48.866a1.055 1.055 0 1 0 0-2.11H59.704V20.75a29.395 29.395 0 0 1 22.423 19.91H78.94a1.055 1.055 0 0 0 0 2.11h3.775c.531 2.223.807 4.516.807 6.836V64.26zm4.51-13.528c0 .661-.539 1.2-1.2 1.2h-1.2v-2.327c0-.78-.03-1.555-.088-2.327h1.287c.662 0 1.2.538 1.2 1.2v2.254z"/>
        </g>
    </g>
</svg>
