<svg xmlns="http://www.w3.org/2000/svg" width="108" height="108" viewBox="0 0 108 108">
    <g fill="none" fill-rule="evenodd">
        <circle cx="54" cy="54" r="54" fill="#EFDEC3"/>
        <g fill="#D8CAB3" fill-rule="nonzero">
            <path d="M35.188 76.24c-2.771 1.584-3.973 3.009-3.973 3.009l-4.221-8.36-7.945 5.513 6.396 3.648v7.346L37.07 80.28l-1.86-4.024-.023-.016zM72.272 76.24c2.77 1.584 3.972 3.009 3.972 3.009l4.221-8.36 7.946 5.514-6.396 3.647v7.347L70.388 80.28l1.86-4.025.024-.016z"/>
        </g>
        <g fill="#9E856F" fill-rule="nonzero">
            <path d="M34.799 76.77l-.049-.001c-2.74 1.473-3.93 2.794-3.93 2.794l5.831.962L34.8 76.77zM71.681 76.77l.05-.001c2.74 1.473 3.93 2.794 3.93 2.794l-5.832.962 1.852-3.755z"/>
        </g>
        <g fill="#EFDFC9" fill-rule="nonzero">
            <path d="M31.945 64.099c-4.95 2.429-7.047 4.972-7.047 4.972L30.68 80.5s2.523-2.987 8.691-5.122c-3.134-3.426-5.557-7.283-7.426-11.28zM74.535 64.099c-1.87 3.996-4.292 7.853-7.426 11.28 6.168 2.134 8.691 5.12 8.691 5.12l5.782-11.428s-2.097-2.543-7.047-4.972z"/>
        </g>
        <path fill="#D8CAB3" fill-rule="nonzero" d="M53.24 83.564c31.572-12.55 27.203-54.948 27.203-54.948C63.94 26.915 53.24 17.98 53.24 17.98S42.54 26.915 26.036 28.616c0 0-4.369 42.399 27.204 54.948z"/>
        <path fill="#EFDFC9" fill-rule="nonzero" d="M53.24 75.733c23.68-9.553 20.403-41.826 20.403-41.826-12.38-1.295-20.403-8.097-20.403-8.097s-8.024 6.802-20.403 8.097c0 0-3.277 32.273 20.403 41.826z"/>
        <path fill="#4D372A" fill-rule="nonzero" d="M89.806 75.886L82.64 71.07l1.113-2.137c.199-.38.147-.843-.13-1.169-.086-.1-2.025-2.347-6.444-4.62 1.58-3.455 2.853-7.234 3.803-11.305 2.86-12.252 1.828-22.771 1.783-23.213a1.049 1.049 0 0 0-.934-.938c-8.329-.862-15.117-3.652-19.345-5.84-4.596-2.378-8.061-4.582-8.087-4.603a1.043 1.043 0 0 0-1.342 0c-.104.087-10.63 8.787-26.62 10.444a1.049 1.049 0 0 0-.934.937c-.02.199-.491 4.934.04 11.76a1.047 1.047 0 1 0 2.086-.164c-.388-4.993-.218-8.9-.11-10.54 8.286-.997 15.03-3.79 19.282-5.997 3.466-1.799 5.84-3.476 6.927-4.3 1.087.824 4.273 2.501 7.739 4.3 4.252 2.207 10.996 5 19.281 5.997.18 2.725.523 11.708-1.804 21.678-1.008 4.319-2.388 8.29-4.123 11.874-.048.1-.098.199-.147.298a47.43 47.43 0 0 1-1.441 2.702c-.093.162-.188.322-.282.481-.068.115-.138.229-.207.343a43.316 43.316 0 0 1-1.258 1.955 40.456 40.456 0 0 1-2.785 3.624 39.6 39.6 0 0 1-.888.989c-3.716 3.99-8.966 7.052-14.085 9.158-5.011-2.064-10.622-5.596-15.38-11.632-.142-.18-.237-.304-.332-.428a43.992 43.992 0 0 1-4.6-7.552c-2.505-5.187-4.366-11.299-5.35-18.76a1.048 1.048 0 0 0-1.174-.905 1.05 1.05 0 0 0-.9 1.18c.902 6.846 2.614 13.034 5.098 18.457-4.42 2.274-6.359 4.52-6.444 4.62-.278.327-.33.79-.131 1.17l1.113 2.136-7.165 4.816a1.053 1.053 0 0 0 .078 1.794l5.854 3.233v6.495a1.052 1.052 0 0 0 1.047 1.05c.184 0 .368-.048.532-.146l11.627-6.893c.17-.125.193-.147.215-.17.118-.143.14-.177.16-.212a1.65 1.65 0 0 0 .106-.262c.033-.207.034-.245.033-.283a1.502 1.502 0 0 0-.044-.28c-.016-.048-.513-1.1-1.491-3.157.86-.43 1.864-.872 3.02-1.288 3.862 3.96 8.456 7.015 13.742 9.127a1.043 1.043 0 0 0 .773 0c5.277-2.108 10.69-5.167 14.555-9.127 1.155.416 2.159.858 3.02 1.289l-1.434 3.004c-.07.19-.079.229-.086.268-.016.202-.015.24-.012.278.038.205.049.24.062.273.093.194.115.227.139.26.116.133.14.155.164.176.088.063 4.011 2.396 11.772 6.998a1.042 1.042 0 0 0 1.05.007c.327-.187.528-.535.528-.912v-6.495l5.855-3.233a1.051 1.051 0 0 0 .077-1.794zM33.665 78.8c.054-.04.108-.078.165-.118l.108-.075.177-.122.114-.076.195-.128.074-.047.23-.147.019-.011.507 1.062-1.664-.284.075-.054zm-7.718.57l-4.888-2.7 5.547-3.727 3.68 7.06c.02.039.043.076.068.111l.031.04c.016.021.032.043.05.062.017.02.037.038.055.056l.036.034a1.03 1.03 0 0 0 .187.13 1.06 1.06 0 0 0 .242.096c.038.009.06.016.084.02l3.036.517-7.585 4.498v-5.275c0-.383-.208-.736-.543-.921zm12.115-5.27a28.12 28.12 0 0 0-3.372 1.576l-.035.02a20.794 20.794 0 0 0-.381.216l-.14.08-.036.022-.366.221-.055.034-.212.133-.045.028c-.81.517-1.443.993-1.913 1.383l-3.424-6.567-1.36-2.61c.762-.722 2.453-2.14 5.28-3.6.11.213.219.425.33.636.056.107.114.212.171.319.144.269.29.536.44.801.032.059.064.12.097.178a44.214 44.214 0 0 0 4.115 6.05l.17.21.293.353c.147.174.294.347.443.518zm35.255 4.41l.207-.434.019.012.229.145.075.048c.068.044.131.086.195.13l.113.074.178.123.108.074.162.116c.026.02.053.038.079.057l-1.664.284.3-.63zm-2.833-4.731l.163-.19a43.004 43.004 0 0 0 2.308-3.007c.08-.115.157-.233.236-.349a40.744 40.744 0 0 0 1.264-1.954 45.636 45.636 0 0 0 .934-1.598l.187-.338a48.283 48.283 0 0 0 .589-1.11l.102-.197c2.808 1.451 4.511 2.878 5.28 3.602l-4.783 9.175a19.147 19.147 0 0 0-2.17-1.544l-.07-.042c-.114-.07-.23-.141-.352-.213l-.036-.021-.14-.081-.238-.137-.131-.074-.037-.02a28.24 28.24 0 0 0-3.381-1.58c.097-.112.186-.217.275-.322zm11.84 5.592a1.052 1.052 0 0 0-.543.92v5.276l-7.586-4.498 3.037-.518a2.117 2.117 0 0 0 .163-.043.984.984 0 0 0 .19-.088l.048-.029c.022-.015.043-.03.064-.047.014-.01.028-.02.041-.032l.063-.06c.01-.011.022-.021.032-.033.024-.026.045-.054.066-.083.042-.057.064-.094.085-.133l3.68-7.06 5.547 3.727-4.888 2.7z"/>
        <path fill="#4D372A" fill-rule="nonzero" d="M75.654 41.544c.252-4.486-.05-7.501-.063-7.628a1.052 1.052 0 0 0-.938-.938c-12.135-1.25-20.17-7.837-20.248-7.903a1.053 1.053 0 0 0-1.349 0c-.08.066-8.114 6.652-20.249 7.903a1.052 1.052 0 0 0-.938.938c-.02.195-.483 4.847.24 11.198.669 5.883 2.535 14.367 7.621 21.375a1.05 1.05 0 1 0 1.703-1.235c-4.807-6.623-6.584-14.71-7.229-20.327-.528-4.606-.403-8.355-.305-9.957 10.414-1.294 17.652-6.132 19.83-7.756 2.18 1.624 9.417 6.462 19.833 7.756.072 1.17.159 3.489-.008 6.456a1.051 1.051 0 0 0 2.1.118zM53.48 77.45a1.073 1.073 0 0 0 .783 0c6.837-2.685 12.188-7.36 15.905-13.895 2.751-4.838 4.572-10.61 5.41-17.156a1.05 1.05 0 0 0-.918-1.17 1.058 1.058 0 0 0-1.185.907C71.115 64.55 61.6 72.186 53.87 75.347c-3.736-1.526-7.011-3.716-9.741-6.513a1.07 1.07 0 0 0-1.5-.028 1.038 1.038 0 0 0-.028 1.48c3.036 3.112 6.696 5.522 10.877 7.164z"/>
        <g fill="#81C06B" stroke="#4D372A" stroke-width="2" transform="translate(40 38)">
            <path fill-rule="nonzero" d="M20.164 13.133l3.708 5.548c1.015 1.52.887 3.54-.317 4.974-1.204 1.434-3.198 1.942-4.909 1.251-2.889-1.166-6.168-1.07-9.04.263-1.705.79-3.704.399-4.925-.965-1.22-1.363-1.372-3.375-.375-4.953l3.64-5.763a7.481 7.481 0 0 1 6.089-3.475c2.472-.072 4.783 1.104 6.13 3.12z"/>
            <circle cx="8" cy="4" r="4"/>
            <circle cx="20" cy="4" r="4"/>
            <circle cx="25.5" cy="11.5" r="2.5"/>
            <circle cx="2.5" cy="11.5" r="2.5"/>
        </g>
    </g>
</svg>
