<?xml version="1.0" standalone="no"?>
<!DOCTYPE svg PUBLIC "-//W3C//DTD SVG 20010904//EN"
 "http://www.w3.org/TR/2001/REC-SVG-20010904/DTD/svg10.dtd">
<svg version="1.0" xmlns="http://www.w3.org/2000/svg"
 width="1500.000000pt" height="1314.000000pt" viewBox="0 0 1500.000000 1314.000000"
 preserveAspectRatio="xMidYMid meet">

<g transform="translate(0.000000,1314.000000) scale(0.100000,-0.100000)"
fill="#fafaff">
<path d="M7035 13120 c-220 -19 -366 -38 -550 -71 -566 -104 -1115 -332 -1546
-641 -37 -27 -71 -48 -77 -48 -5 0 -52 22 -103 49 -115 59 -275 114 -423 143
-95 19 -143 23 -336 22 -192 0 -243 -3 -345 -23 -366 -69 -688 -205 -1041
-437 -397 -261 -871 -725 -1342 -1312 -628 -783 -1050 -1536 -1237 -2204 l-35
-127 0 -488 0 -489 39 -101 c186 -476 565 -881 1008 -1077 195 -86 401 -144
618 -172 72 -9 131 -18 133 -19 1 -1 -11 -58 -27 -126 -89 -367 -149 -777
-172 -1174 -17 -293 -6 -888 20 -1095 87 -676 264 -1205 556 -1668 31 -48 61
-96 68 -107 100 -159 330 -430 500 -589 692 -645 1613 -1043 2877 -1241 537
-84 1352 -133 2025 -122 872 15 1435 68 2117 201 400 79 833 214 1253 391 75
32 390 193 470 240 1138 674 1759 1728 1856 3148 13 199 7 778 -10 987 -30
353 -83 688 -162 1019 -16 68 -29 126 -29 130 0 4 46 13 103 20 664 82 1168
400 1505 950 144 234 203 408 238 703 16 131 17 164 5 290 -41 470 -183 905
-469 1443 -331 621 -855 1334 -1382 1879 -334 344 -538 523 -805 701 -371 248
-683 379 -1080 452 -155 28 -500 26 -654 -5 -150 -30 -303 -82 -422 -143 -52
-27 -98 -49 -101 -49 -3 0 -63 38 -133 85 -295 197 -564 333 -875 440 -378
131 -716 198 -1190 235 -296 24 -558 24 -845 0z m990 -929 c403 -49 730 -141
1040 -290 408 -197 722 -449 1040 -836 77 -94 225 -295 250 -340 6 -11 33 -54
59 -95 123 -189 351 -626 466 -895 148 -345 209 -500 345 -880 52 -145 171
-491 187 -545 14 -49 177 -507 233 -655 19 -49 90 -243 160 -430 69 -187 133
-358 142 -380 36 -93 145 -413 197 -575 108 -341 200 -741 241 -1050 64 -485
72 -1043 19 -1449 -53 -409 -181 -815 -349 -1111 -21 -36 -46 -80 -57 -99 -28
-50 -124 -186 -186 -266 -73 -93 -316 -334 -422 -419 -307 -245 -751 -473
-1186 -612 -170 -54 -314 -92 -554 -148 -359 -82 -916 -152 -1415 -176 -121
-6 -239 -12 -262 -13 -40 -2 -41 -1 -47 33 -9 52 -7 1843 2 1856 4 5 23 16 42
24 111 43 294 147 420 239 479 348 841 855 937 1311 25 116 24 374 0 480 -27
113 -45 167 -89 254 -54 109 -89 158 -177 249 -208 215 -500 330 -971 384
-230 26 -1017 26 -1245 0 -462 -53 -754 -168 -964 -378 -127 -127 -210 -276
-258 -462 -25 -93 -27 -119 -27 -287 0 -201 8 -250 73 -443 174 -514 722
-1091 1266 -1333 l70 -31 3 -947 2 -946 -88 0 c-94 0 -561 27 -602 35 -14 2
-81 9 -150 15 -151 13 -493 61 -674 95 -924 170 -1648 497 -2127 960 -174 168
-259 269 -378 448 -216 323 -363 712 -435 1149 -38 230 -46 322 -53 627 -17
766 82 1390 347 2181 80 242 83 249 322 890 107 289 144 389 228 620 41 112
141 402 201 585 84 253 207 588 326 890 50 126 188 443 226 520 8 17 27 57 43
89 15 33 65 131 111 219 337 639 708 1091 1154 1408 420 298 899 469 1489 533
221 24 213 24 570 21 266 -2 370 -7 505 -24z m-3936 -529 l44 -7 -38 -50 c-21
-27 -59 -77 -85 -110 -96 -124 -261 -369 -330 -489 -10 -17 -50 -87 -89 -156
-73 -126 -265 -504 -313 -615 -15 -33 -47 -107 -73 -165 -55 -124 -219 -534
-270 -676 -33 -90 -75 -212 -286 -824 -39 -113 -89 -257 -111 -320 -56 -160
-438 -1181 -450 -1204 -10 -18 -19 -18 -127 -13 -374 21 -624 119 -828 324
-138 140 -230 297 -257 442 -87 459 213 1203 835 2073 141 197 389 508 520
653 462 512 709 730 1046 923 280 160 606 246 812 214z m7104 -27 c121 -27
308 -99 427 -163 124 -67 330 -208 450 -308 228 -190 597 -579 871 -919 248
-307 524 -703 667 -955 11 -19 36 -64 57 -100 60 -106 188 -368 235 -480 150
-366 209 -690 164 -907 -20 -100 -45 -161 -100 -246 -224 -345 -509 -496 -989
-523 l-121 -7 -26 69 c-15 38 -77 204 -138 369 -62 165 -140 377 -175 470
-118 317 -164 448 -330 935 -138 407 -158 464 -263 735 -45 119 -85 217 -172
425 -133 320 -396 831 -562 1090 -113 177 -264 389 -345 484 -18 22 -33 43
-33 47 0 26 244 16 383 -16z m-3372 -6775 c312 -17 536 -66 592 -128 24 -26
32 -108 17 -173 -18 -80 -101 -242 -177 -344 -82 -110 -271 -301 -373 -376
-107 -79 -222 -143 -315 -175 -75 -25 -84 -26 -139 -14 -253 51 -647 384 -827
697 -89 157 -120 290 -84 366 15 32 27 40 98 68 193 74 699 107 1208 79z"/>
<path d="M5855 8229 c-239 -34 -439 -212 -499 -446 -24 -90 -21 -244 5 -329
60 -197 204 -344 399 -410 78 -27 273 -27 350 0 205 69 359 234 406 432 20 86
20 231 0 306 -56 209 -232 385 -431 432 -84 20 -160 25 -230 15z"/>
<path d="M8863 8224 c-128 -28 -260 -113 -340 -218 -163 -215 -173 -506 -24
-724 170 -251 501 -339 765 -205 209 106 336 312 336 548 0 168 -60 316 -175
431 -152 153 -355 214 -562 168z"/>
</g>
</svg>
